<?xml version="1.0" standalone="no"?>
<!DOCTYPE svg PUBLIC "-//W3C//DTD SVG 1.1//EN" "http://www.w3.org/Graphics/SVG/1.1/DTD/svg11.dtd">
<svg xmlns="http://www.w3.org/2000/svg">
<defs >
<font id="Literata" horiz-adv-x="598" ><font-face
    font-family="Literata Medium"
    units-per-em="1000"
    panose-1="0 0 0 0 0 0 0 0 0 0"
    ascent="1177"
    descent="-308"
    alphabetic="0" />
<glyph unicode=" " horiz-adv-x="190" />
<glyph unicode="!" horiz-adv-x="333" d="M136 533Q136 564 136 593T137 649Q138 682 155 698T202 715Q222 715 240 707T269 687Q256 648 245 604T224 503T206 371T193 194H139L136 533ZM88 53Q88 86 110 105T166 125Q199 125 219 106T239 54Q239 21 217 4T161
-14Q128 -14 108 3T88 53Z" />
<glyph unicode="&quot;" horiz-adv-x="402" d="M166 547H128L108 705Q107 715 108 724Q109 746 125 763T167 780Q183 780 196 770T209 742Q209 731 205 716L166 547ZM318 547H280L260 705Q259 715 260 724Q261 746 277 763T319 780Q335 780 348 770T361 742Q361
731 357 716L318 547Z" />
<glyph unicode="#" horiz-adv-x="674" d="M144 0L169 139H49L63 194H181L213 366H91L104 422H224L248 550H310L286 422H462L485 550H548L524 422H644L632 366H514L482 194H607L595 139H471L445 0H383L409 139H232L206 0H144ZM274 366L243 194H420L452 366H274Z" />
<glyph unicode="$" horiz-adv-x="503" d="M237 -81L267 790H311L281 -81H237ZM480 200Q480 137 449 89T362 14T233 -14Q177 -14 133 2T63 48T38 115Q38 149 56 169T105 190Q125 190 144 182T175 161L159 129Q142 94 164 73T241 52Q309 52 348 87T388 179Q388 204
376 224T334 265T251 312Q184 346 144 377T87 442T70 517Q70 575 99 620T179 690T298 715Q352 715 393 698T459 650T483 580Q483 552 465 533T419 514Q401 514 383 521T353 539L372 578Q389 610 367 630T293 651Q229 651 195 624T160 546Q160 519 174 496T221 450T315
396Q379 363 414 335T465 276T480 200Z" />
<glyph unicode="%" horiz-adv-x="826" d="M570 597H641L260 -11H188L570 597ZM52 429Q52 491 75 528T135 581T210 597Q246 597 278 581T330 531T350 443Q350 388 329 351T272 294T194 274Q127 274 90 318T52 429ZM130 433Q130 389 146 359T200 328Q234 328 253
355T272 442Q272 490 255 517T201 545Q170 545 150 519T130 433ZM476 143Q476 205 499 242T559 295T634 311Q670 311 702 295T754 245T774 157Q774 102 753 65T696 8T618 -12Q551 -12 514 32T476 143ZM553 147Q553 103 569 73T624 42Q657 42 676 69T695 156Q695
204 678 231T625 259Q593 259 573 233T553 147Z" />
<glyph unicode="&amp;" horiz-adv-x="744" d="M310 -14Q200 -14 137 32T74 159Q74 225 119 275T244 347L245 355Q92 370 92 494Q92 557 130 607T234 686T382 715Q463 715 513 682T563 592Q563 562 542 542T489 522Q471 522 455 531T431 554L448 581Q468 614 445
637T369 660Q293 660 247 618T200 506Q200 447 232 418T333 388Q347 388 361 389T396 394L401 342Q297 334 240 290T182 175Q182 111 219 78T326 45Q412 45 463 90T515 210Q515 282 487 337L518 381L583 374Q612 371 624 383T627 419L611 461Q625 469 638 472T666
475Q696 475 713 457T731 408Q731 371 703 349T630 326Q612 326 590 328T551 334L555 327Q580 293 590 264T599 202Q596 137 559 89T459 13T310 -14Z" />
<glyph unicode="&apos;" horiz-adv-x="250" d="M166 547H128L108 705Q107 715 108 724Q109 746 125 763T167 780Q183 780 196 770T209 742Q209 731 205 716L166 547Z" />
<glyph unicode="(" horiz-adv-x="332" d="M75 277Q75 369 100 464T175 649T292 814L332 790Q283 712 250 625T200 448T183 269Q183 186 198 103T238 -55T292 -188L251 -212Q220 -176 189 -125T132 -9T91 127T75 277Z" />
<glyph unicode=")" horiz-adv-x="332" d="M276 326Q276 233 251 138T177 -46T59 -212L19 -188Q69 -110 102 -23T151 155T168 334Q168 417 153 500T114 657T60 790L100 814Q131 778 162 727T219 612T260 476T276 326Z" />
<glyph unicode="*" horiz-adv-x="473" d="M241 623L228 727Q224 756 234 769T264 782Q274 782 285 777T304 764L274 622L362 694Q372 702 385 703T408 696T418 669Q418 663 417 655T413 639L287 596L384 556Q399 550 405 540T411 518Q411 503 399 492T364 478L270
570L286 463Q289 444 280 431T253 417Q243 416 230 422T208 442L237 572L157 503Q148 495 132 493T104 498T91 528Q91 533 92 541T95 557L225 599L132 631Q113 638 107 646T101 668Q101 682 113 694T150 709L241 623Z" />
<glyph unicode="+" horiz-adv-x="582" d="M335 273L328 81H251L258 273H83L85 343H261L268 524H344L337 343H518L516 273H335Z" />
<glyph unicode="," horiz-adv-x="318" d="M100 -168L69 -128Q108 -99 131 -71T154 -24Q154 -3 131 5L93 18Q82 47 88 72T113 112T162 128Q199 128 221 103T244 36Q244 3 226 -33T176 -104T100 -168Z" />
<glyph unicode="-" horiz-adv-x="354" d="M55 330H322L319 243H52L55 330Z" />
<glyph unicode="." horiz-adv-x="313" d="M79 54Q79 89 102 111T163 134Q200 134 222 114T244 61Q244 24 219 4T158 -16Q123 -16 101 2T79 54Z" />
<glyph unicode="/" horiz-adv-x="428" d="M370 802H438L82 -110H13L370 802Z" />
<glyph unicode="0" horiz-adv-x="581" d="M51 303Q51 429 85 521T183 664T332 714Q439 714 499 632T560 401Q560 278 526 185T429 39T284 -13Q211 -13 159 24T79 133T51 303ZM318 658Q241 658 199 567T157 311Q157 180 193 113T297 46Q372 46 412 139T453 402Q453
533 420 595T318 658Z" />
<glyph unicode="1" horiz-adv-x="395" d="M184 634H57L64 687L265 713L283 699L260 65L369 49L363 0H42L48 48L164 64L184 634Z" />
<glyph unicode="2" horiz-adv-x="524" d="M43 560Q43 603 72 638T150 694T257 715Q354 715 410 666T467 531Q467 496 461 466T436 403T382 328T288 226T145 83V78H312Q354 78 378 87T417 122T448 195H501L475 0H58L50 75Q138 160 197 226T292 344T344 442T360
531Q360 590 328 625T242 660Q203 660 177 646T143 609T155 565L176 541Q166 521 149 509T109 497Q80 497 62 514T43 560Z" />
<glyph unicode="3" horiz-adv-x="523" d="M468 558Q468 501 432 456T332 384V376Q415 367 455 329T495 219Q495 154 456 101T350 17T200 -14Q122 -14 76 16T29 98Q29 128 49 148T99 169Q116 169 132 160T157 137L140 108Q124 79 142 60T203 41Q257 41 296 63T358
126T380 220Q380 278 347 306T248 335Q212 335 178 329L171 380Q264 391 315 435T366 550Q366 603 335 631T244 660Q205 660 181 649T153 618T167 577L188 553Q178 532 161 520T121 508Q93 508 76 525T59 571Q59 611 86 643T161 695T265 715Q361 715 414 674T468
558Z" />
<glyph unicode="4" horiz-adv-x="555" d="M435 244H544L538 173H432L428 64L516 50L510 0H190L196 47L331 65L336 173H26L19 226L352 695L446 710L457 701L435 244ZM339 244L359 598L107 244H339Z" />
<glyph unicode="5" horiz-adv-x="521" d="M385 246Q385 316 355 349T261 382Q233 382 199 375T126 351L95 390L123 686L139 700H465L453 607H181L158 419Q185 435 226 445T304 455Q393 455 443 403T494 259Q494 179 457 117T353 21T198 -14Q121 -14 74 17T26 98Q26
129 45 149T95 170Q114 170 130 161T155 137L139 110Q121 81 138 62T200 42Q256 42 297 67T362 139T385 246Z" />
<glyph unicode="6" horiz-adv-x="543" d="M530 -14Q425 -14 367 62T309 277Q309 407 349 506T462 660T629 715Q697 715 739 682T781 597Q781 568 764 550T718 531Q700 531 681 538T651 556L670 593Q684 621 670 638T620 656Q566 656 521 618T446 511T406 351L410
348Q460 402 507 428T604 454Q683 454 727 403T771 259Q771 179 740 118T655 21T530 -14ZM532 44Q596 44 632 97T668 246Q668 315 646 350T578 386Q554 386 524 372T464 332T409 274Q407 205 421 153T464 73T532 44Z" />
<glyph unicode="7" horiz-adv-x="517" d="M154 0L148 10L451 607H198Q161 607 144 595T115 549L99 496L43 505L69 700H516L525 643L271 0H154Z" />
<glyph unicode="8" horiz-adv-x="540" d="M44 167Q44 231 80 281T191 370Q83 433 83 534Q83 588 110 629T188 692T305 715Q390 715 442 674T495 565Q495 461 370 388Q448 347 480 305T513 198Q513 137 481 89T394 14T267 -14Q201 -14 151 9T72 72T44 167ZM243
344Q191 312 167 273T143 182Q143 119 178 83T275 46Q338 46 374 83T410 186Q410 212 404 230T381 264T330 300T243 344ZM177 552Q177 509 207 479T314 414Q363 446 385 479T408 552Q408 600 379 629T298 658Q242 658 210 630T177 552Z" />
<glyph unicode="9" horiz-adv-x="536" d="M235 -14Q200 -14 163 -1T96 37T47 92L85 131Q116 97 156 77T235 57Q313 57 361 133T420 351L416 354Q364 300 318 275T224 249Q144 249 100 301T55 445Q55 524 86 585T172 680T297 715Q403 715 460 640T518 427Q518 287
485 189T389 38T235 -14ZM249 316Q274 316 304 330T363 371T417 429Q419 499 404 550T360 629T293 657Q232 657 196 604T159 458Q159 387 181 352T249 316Z" />
<glyph unicode=":" horiz-adv-x="313" d="M334 54Q334 89 357 111T418 134Q455 134 477 114T499 61Q499 24 474 4T413 -16Q378 -16 356 2T334 54ZM95 445Q95 480 118 502T179 525Q216 525 238 505T260 452Q260 415 235 395T174 375Q139 375 117 393T95 445Z" />
<glyph unicode=";" horiz-adv-x="318" d="M95 445Q95 480 118 502T179 525Q216 525 238 505T260 452Q260 415 235 395T174 375Q139 375 117 393T95 445ZM349 -168L318 -128Q357 -99 380 -71T403 -24Q403 -3 380 5L342 18Q331 47 337 72T362 112T411 128Q448 128
470 103T493 36Q493 3 475 -33T425 -104T349 -168Z" />
<glyph unicode="&lt;" horiz-adv-x="582" d="M464 535L495 476L162 287L483 98L447 37L76 262L77 310L464 535Z" />
<glyph unicode="=" horiz-adv-x="582" d="M80 179L83 249H516L513 179H80ZM87 360L90 430H522L520 360H87Z" />
<glyph unicode="&gt;" horiz-adv-x="582" d="M139 37L108 97L440 286L119 477L155 535L527 309L525 262L139 37Z" />
<glyph unicode="?" horiz-adv-x="514" d="M180 384Q275 406 321 450T368 552Q368 603 338 632T251 661Q212 661 188 649T159 618T173 577L194 553Q187 534 170 522T131 509Q101 509 85 526T68 571Q68 617 98 649T175 698T269 715Q325 715 369 697T439 642T465
545Q465 497 444 454T378 375T260 317L286 194H218L180 384ZM176 53Q176 86 198 105T254 125Q287 125 307 106T327 54Q327 21 305 4T249 -14Q215 -14 196 3T176 53Z" />
<glyph unicode="@" horiz-adv-x="862" d="M439 398Q468 398 495 392T543 375L595 398L615 389L605 98Q604 64 610 55T636 45Q679 45 710 95T742 238Q742 365 672 439T454 513Q365 513 294 475T181 364T139 186Q139 97 165 37T235 -59T328 -109T426 -124Q498 -124
546 -105T636 -53L670 -95Q576 -187 424 -187Q354 -187 290 -166T174 -100T94 14T64 180Q64 292 110 380T243 520T454 572Q562 572 642 536T768 427T813 244Q813 156 785 99T710 15T610 -13Q579 -13 562 -3T539 28T534 81L540 199H535L516 134Q502 83 481 51T433
3T376 -13Q327 -13 298 9T255 67T242 147Q242 236 270 291T343 372T439 398ZM531 330Q515 339 492 343T449 347Q407 347 380 319T341 245T329 152Q329 107 342 80T389 53Q413 53 432 74T467 132T497 217L531 330Z" />
<glyph unicode="A" horiz-adv-x="692" d="M428 707L609 59L691 48L685 0H411L417 48L497 60L453 229H218L159 60L249 48L243 0H7L13 48L88 60L318 695L428 707ZM238 289H437L354 615H351L238 289Z" />
<glyph unicode="B" horiz-adv-x="616" d="M565 549Q565 494 525 447T415 374V369Q593 345 593 205Q593 108 512 54T283 0H44L49 47L137 62L162 634L76 651L82 700H317Q443 700 504 663T565 549ZM293 380Q458 406 458 534Q458 591 421 617T304 643H261L238 57H290Q486
57 486 208Q486 332 347 332Q331 332 319 331T291 326L293 380Z" />
<glyph unicode="C" horiz-adv-x="626" d="M486 565Q503 601 473 625T378 649Q276 649 221 567T165 333Q165 250 188 189T254 94T357 61Q410 61 456 87T550 171L593 128Q490 -14 346 -14Q258 -14 194 27T94 144T58 324Q58 444 98 531T210 667T381 715Q444 715 494
695T573 640T603 561Q603 534 586 517T544 500Q500 500 469 531L486 565Z" />
<glyph unicode="D" horiz-adv-x="733" d="M44 0L49 48L137 62L162 634L76 651L82 700H356Q518 700 607 620T697 392Q697 268 647 181T501 47T269 0H44ZM238 59H262Q420 59 504 142T588 383Q588 507 523 575T337 643H261L238 59Z" />
<glyph unicode="E" horiz-adv-x="599" d="M161 634L76 651L82 700H543L557 530L499 521L488 557Q478 591 467 609T439 633T392 640H261L251 393H493L488 326H248L237 61H386Q430 61 451 78T489 145L503 186H561L537 0H51L57 49L138 62L161 634Z" />
<glyph unicode="F" horiz-adv-x="562" d="M57 49L139 62L162 634L76 651L82 700H543L557 531L501 521L488 560Q477 592 466 609T438 633T393 640H261L250 386H482L477 319H247L235 62L364 49L358 0H51L57 49Z" />
<glyph unicode="G" horiz-adv-x="648" d="M610 333L598 59Q570 38 530 22T447 -4T363 -14Q269 -14 201 27T96 144T59 325Q59 445 100 532T216 667T395 715Q462 715 514 695T596 641T626 563Q626 536 609 518T567 500Q547 500 527 508T492 532L510 568Q527 604
495 626T396 649Q285 649 225 568T165 333Q165 248 189 186T259 90T367 56Q406 56 440 65T501 92L508 264L422 283L429 333H610Z" />
<glyph unicode="H" horiz-adv-x="769" d="M549 326H249L239 62L334 49L328 0H51L57 49L138 61L161 635L76 652L82 700H352L346 651L261 635L252 392H552L562 635L477 652L483 700H752L746 651L661 635L639 62L734 49L728 0H451L457 49L538 62L549 326Z" />
<glyph unicode="I" horiz-adv-x="367" d="M161 634L76 651L82 700H350L344 651L260 635L238 62L332 49L326 0H49L55 49L137 62L161 634Z" />
<glyph unicode="J" horiz-adv-x="367" d="M162 634L61 651L67 700H351L345 651L260 634L238 63Q236 2 220 -45T166 -136T65 -231L33 -189Q72 -146 93 -109T125 -32T138 65L162 634Z" />
<glyph unicode="K" horiz-adv-x="699" d="M583 -14Q538 -14 509 2T458 63T411 191Q396 243 378 274T336 321T275 341L277 377L528 637L449 649L458 700H696L689 650L612 635L364 387V381Q406 365 433 345T479 294T513 211Q535 143 549 109T578 62T614 50Q637 50
673 68L693 28Q673 10 643 -2T583 -14ZM49 0L55 49L137 62L161 634L76 651L82 700H350L344 651L260 634L238 62L332 49L326 0H49Z" />
<glyph unicode="L" horiz-adv-x="590" d="M56 48L137 61L161 635L76 652L82 700H371L365 652L261 635L237 61H381Q425 61 447 78T484 145L500 196H559L533 0H50L56 48Z" />
<glyph unicode="M" horiz-adv-x="936" d="M716 620L519 6L414 -11L233 609L195 63L284 49L278 0H37L43 49L125 63L165 635L81 652L87 700H310L481 100L674 700H894L888 650L811 635L831 62L924 49L918 0H645L651 49L733 62L716 620Z" />
<glyph unicode="N" horiz-adv-x="742" d="M562 128L580 634L495 651L501 700H740L734 651L651 634L626 0L522 -12L223 614L203 62L295 49L289 0H44L50 49L130 62L155 638L76 649L82 700H292L562 128Z" />
<glyph unicode="O" horiz-adv-x="716" d="M59 328Q59 448 99 534T213 668T388 715Q478 715 543 675T645 560T681 382Q681 263 641 174T527 36T356 -14Q266 -14 199 28T95 147T59 328ZM166 349Q166 211 220 133T369 54Q467 54 518 134T570 364Q570 500 519 575T374
650Q275 650 221 571T166 349Z" />
<glyph unicode="P" horiz-adv-x="591" d="M290 341Q297 340 304 340T321 340Q469 340 469 502Q469 643 304 643H261L237 62L362 48L358 0H44L49 47L138 63L163 634L76 651L82 700H322Q448 700 513 650T578 502Q578 437 547 387T459 310T328 282Q317 282 307 283T287
285L290 341Z" />
<glyph unicode="Q" horiz-adv-x="713" d="M59 344Q59 459 99 542T213 670T389 715Q479 715 544 676T645 563T681 391Q681 285 647 208T546 86T383 31V23Q425 17 459 3T530 -40Q583 -79 606 -84T636 -64L645 -31Q687 -31 710 -49T734 -100Q734 -133 710 -155T648
-177Q615 -177 578 -160T493 -104Q450 -68 424 -50T378 -26T333 -20Q315 -20 300 -23T263 -33T210 -56L184 -1Q207 10 230 19T275 32V38Q208 55 160 97T85 203T59 344ZM167 356Q167 222 218 152T365 81Q429 81 475 117T546 219T571 375Q571 506 520 578T375 650Q275
650 221 574T167 356Z" />
<glyph unicode="R" horiz-adv-x="685" d="M292 371Q372 374 417 414T462 523Q462 586 424 614T303 643H260L238 61L343 47L338 0H44L49 47L137 63L162 635L76 652L82 700H322Q450 700 510 659T571 531Q571 483 545 442T471 375T362 341V338Q399 325 421 303T462
244L519 125Q541 81 558 66T603 50Q627 50 661 68L681 29Q661 9 632 -2T572 -14Q515 -14 479 12T416 99L375 197Q352 254 334 280T288 321L292 371Z" />
<glyph unicode="S" horiz-adv-x="503" d="M480 200Q480 137 449 89T362 14T233 -14Q177 -14 133 2T63 48T38 115Q38 149 56 169T105 190Q125 190 144 182T175 161L159 129Q142 94 164 73T241 52Q309 52 348 87T388 179Q388 204 376 224T334 265T251 312Q184 346
144 377T87 442T70 517Q70 575 99 620T179 690T298 715Q352 715 393 698T459 650T483 580Q483 552 465 533T419 514Q401 514 383 521T353 539L372 578Q389 610 367 630T293 651Q229 651 195 624T160 546Q160 519 174 496T221 450T315 396Q379 363 414 335T465 276T480
200Z" />
<glyph unicode="T" horiz-adv-x="625" d="M161 49L265 62L290 640H208Q178 640 160 634T132 611T110 560L97 517L38 528L63 700H622L636 527L580 517L566 560Q555 592 544 609T517 633T471 640H389L363 61L471 49L465 0H155L161 49Z" />
<glyph unicode="U" horiz-adv-x="761" d="M626 62L711 49L704 0H542L535 12L571 365H567Q536 226 499 143T413 23T299 -14Q204 -14 160 45T122 224L144 636L69 651L75 700H334L328 651L244 634L223 230Q219 142 240 104T315 66Q359 66 394 97T455 181T502 300T536
436T559 570L568 634L486 651L492 700H735L729 651L657 634L626 62Z" />
<glyph unicode="V" horiz-adv-x="694" d="M364 93H368L564 635L477 653L483 700H723L716 649L637 632L404 1L293 -12L103 635L27 650L34 700H306L300 650L212 637L364 93Z" />
<glyph unicode="W" horiz-adv-x="1005" d="M715 96H719L875 635L789 653L795 700H1034L1027 649L948 632L757 0L640 -10L527 397L376 -1L261 -10L103 635L27 650L34 700H307L301 650L212 637L335 93H339L496 503L448 685L554 701L715 96Z" />
<glyph unicode="X" horiz-adv-x="695" d="M176 64L256 47L250 0H14L21 51L98 67L300 346L113 636L43 650L50 700H316L310 650L234 638L370 416L522 635L441 653L447 700H683L676 649L598 632L406 365L602 65L687 50L680 0H405L411 50L485 62L339 294L176 64Z" />
<glyph unicode="Y" horiz-adv-x="674" d="M368 332H372L543 635L457 653L463 700H703L696 649L617 632L399 261L391 62L485 49L479 0H203L209 49L291 62L302 260L101 635L27 650L34 700H300L294 650L210 637L368 332Z" />
<glyph unicode="Z" horiz-adv-x="614" d="M584 648L180 60H380Q419 60 443 67T483 96T509 157L522 202H580L554 0H53L55 49L462 642H265Q229 642 209 636T177 611T154 557L140 509L80 519L105 700H578L584 648Z" />
<glyph unicode="[" horiz-adv-x="333" d="M187 -149L290 -158L283 -212H88L128 812H320L316 759L220 750L187 -149Z" />
<glyph unicode="\" horiz-adv-x="428" d="M407 -110H337L45 802H114L407 -110Z" />
<glyph unicode="]" horiz-adv-x="333" d="M167 749L67 758L74 812H265L226 -212H30L35 -156L133 -147L167 749Z" />
<glyph unicode="^" horiz-adv-x="582" d="M552 373L494 339L314 624L113 339L57 373L292 712H341L552 373Z" />
<glyph unicode="_" horiz-adv-x="500" d="M10 -105L13 -38H483L480 -105H10Z" />
<glyph unicode="`" horiz-adv-x="500" d="M359 607L333 580L194 677Q163 699 165 728Q165 747 181 761T232 775L359 607Z" />
<glyph unicode="a" horiz-adv-x="576" d="M472 95Q471 71 476 62T497 52Q507 52 519 58T545 75L570 34Q554 18 522 2T458 -14Q375 -14 384 87L401 271L394 272L372 191Q354 125 333 80T281 10T200 -14Q147 -14 113 13T61 89T44 201Q44 296 73 368T156 482T279
523Q314 523 344 515T393 498L463 521L485 511L472 95ZM216 58Q238 58 254 69T285 108T316 187T355 316L388 437Q369 447 342 453T289 459Q245 459 213 426T163 334T146 200Q146 126 162 92T216 58Z" />
<glyph unicode="b" horiz-adv-x="575" d="M281 -14Q249 -14 211 -8T139 9T83 32L107 696L17 717L23 767H184L200 756L188 425L161 190L169 188L206 326Q224 395 247 438T301 502T379 523Q457 523 493 465T529 308Q529 204 498 132T410 23T281 -14ZM363 448Q340
448 324 438T294 401T262 324T221 191L187 72Q203 65 225 58T280 50Q315 50 342 69T388 122T417 203T427 301Q427 337 423 371T406 426T363 448Z" />
<glyph unicode="c" horiz-adv-x="492" d="M292 523Q336 523 371 508T426 464T447 393Q447 364 430 345T383 326Q361 326 344 338T318 370L339 395Q359 417 356 432T334 456T291 464Q245 464 213 437T163 358T146 228Q146 181 158 142T197 80T263 57Q300 57 334
77T399 133L436 95Q427 83 411 65T370 29T314 -1T244 -14Q179 -14 135 16T67 101T44 225Q44 311 73 378T159 484T292 523Z" />
<glyph unicode="d" horiz-adv-x="576" d="M471 92Q470 70 475 61T497 51Q510 51 523 58T550 74L573 36Q562 26 543 14T502 -6T458 -14Q411 -14 396 14T384 87L400 271L393 272L370 188Q352 122 332 78T279 10T196 -14Q143 -14 109 15T59 94T43 205Q43 299 72 370T154
482T280 523Q311 523 342 515T392 498L400 696L306 717L313 767H473L491 754L471 92ZM214 58Q236 58 252 68T284 106T316 184T355 315L388 437Q369 447 341 453T289 459Q243 459 211 426T161 335T144 205Q144 129 161 94T214 58Z" />
<glyph unicode="e" horiz-adv-x="483" d="M288 523Q363 523 399 489T436 394Q436 342 410 310T342 258T250 225L146 199Q149 164 163 132T203 78T268 57Q301 57 331 72T397 121L432 80Q419 63 392 41T328 2T244 -14Q180 -14 135 16T67 101T44 225Q44 313 74 380T159
485T288 523ZM338 392Q338 422 325 443T279 464Q222 464 187 410T146 259L235 282Q288 296 313 320T338 392Z" />
<glyph unicode="f" horiz-adv-x="363" d="M314 732Q265 732 242 695T215 602L210 509H346L342 448H210L197 127Q195 70 184 12T154 -96T107 -181Q89 -204 67 -216T21 -229Q-9 -229 -28 -215T-47 -178Q-47 -143 -22 -109L21 -127Q48 -138 67 -128T90 -81Q92 -60
94 -35T97 23L112 448H27L34 502L114 510L117 559Q121 623 145 673T212 753T320 782Q352 782 384 772T440 737T463 670Q463 643 446 627T402 610Q385 610 370 617T346 636L356 664Q381 732 314 732Z" />
<glyph unicode="g" horiz-adv-x="556" d="M401 271L394 272L372 189Q353 120 332 76T279 10T198 -12Q144 -12 110 18T60 97T44 206Q44 300 73 371T155 482T279 523Q308 523 342 517T406 499L452 524L484 514L468 81Q466 21 451 -34T404 -134T321 -204T196 -230Q160
-230 124 -221T65 -189T41 -131Q41 -97 60 -77T108 -57Q124 -57 141 -64T167 -84L158 -112Q148 -146 159 -161T212 -177Q290 -177 332 -109T384 76L401 271ZM216 60Q238 60 255 71T287 110T318 188T356 316L389 437Q370 447 343 453T292 459Q245 459 212 426T163
337T146 209Q146 138 161 99T216 60Z" />
<glyph unicode="h" d="M584 37Q572 26 551 15T507 -4T463 -12Q431 -12 414 -1T390 30T386 74L411 354Q415 402 408 421T375 441Q347 441 332 415T293 319L184 0H87L113 697L22 717L29 767H192L208 756L194 409L170 155L177 153L247 367Q273 447 307 485T400 523Q468
523 491 480T507 351L485 97Q483 75 487 65T508 54Q519 54 533 60T561 76L584 37Z" />
<glyph unicode="i" horiz-adv-x="306" d="M118 415Q120 437 115 446T93 456Q81 456 67 452T32 440L16 488Q35 499 67 511T136 523Q178 523 198 496T214 410L191 95Q190 74 194 63T214 52Q226 52 240 59T273 82L297 41Q287 31 269 18T226 -4T173 -14Q123 -14 106
14T92 80L118 415ZM90 687Q90 717 109 736T158 756Q189 756 207 737T225 688Q225 658 207 639T158 619Q128 619 109 638T90 687Z" />
<glyph unicode="j" horiz-adv-x="289" d="M197 122Q195 67 184 9T152 -100T107 -181Q89 -203 68 -216T20 -229Q-12 -229 -29 -213T-47 -176Q-47 -162 -41 -145T-22 -110L21 -128Q47 -138 66 -129T90 -82Q93 -58 94 -36T97 23L113 415Q114 438 109 447T88 456Q62
456 26 440L10 488Q29 499 62 511T130 523Q173 523 192 495T208 408L197 122ZM78 687Q78 717 97 736T146 756Q177 756 195 737T213 688Q213 658 195 639T146 619Q116 619 97 638T78 687Z" />
<glyph unicode="k" horiz-adv-x="562" d="M116 696L26 717L32 767H193L209 756L188 301Q228 309 266 324T344 366Q374 386 379 405T364 437L336 454Q342 487 363 505T413 523Q447 523 464 502T481 451Q481 411 457 383T380 321Q363 310 347 301T313 285L415 110Q433
80 447 66T480 52Q496 52 508 57T533 70L556 31Q541 17 511 2T443 -14Q408 -14 384 4T335 65L230 252Q218 249 208 246T186 240L175 0H85L116 696Z" />
<glyph unicode="l" horiz-adv-x="294" d="M112 696L22 717L29 767H190L206 756L184 94Q183 73 188 63T209 52Q220 52 235 60T267 82L291 42Q281 32 263 19T221 -4T167 -14Q120 -14 102 12T86 80L112 696Z" />
<glyph unicode="m" horiz-adv-x="888" d="M406 351Q410 401 402 421T369 441Q350 441 339 431T317 396T293 326L189 0H92L108 416Q109 437 103 446T81 455Q73 455 60 451T25 438L8 489Q21 496 41 504T84 517T128 523Q171 523 188 497T200 419L175 155L182 153L245
367Q270 449 301 486T391 523Q451 523 474 483T489 362L466 151L474 149L544 366Q570 446 602 484T692 523Q760 523 782 480T796 355L775 95Q773 73 777 63T797 52Q822 52 851 74L873 34Q861 23 841 12T797 -6T753 -14Q707 -14 690 10T676 72L700 354Q705 404 698
422T667 441Q652 441 642 433T621 400T591 324L476 0H376L406 351Z" />
<glyph unicode="n" horiz-adv-x="603" d="M589 34Q578 24 557 13T513 -6T468 -14Q383 -14 391 72L416 356Q420 405 412 423T381 441Q363 441 351 431T327 397T301 328L189 0H92L108 416Q109 437 103 446T82 455Q72 455 59 451T25 438L8 489Q19 495 39 503T82 517T126
523Q170 523 187 497T200 421L175 155L182 153L253 369Q279 448 313 485T405 523Q472 523 495 481T512 357L490 95Q488 72 492 62T513 52Q524 52 538 58T566 74L589 34Z" />
<glyph unicode="o" horiz-adv-x="539" d="M254 -14Q153 -14 99 54T45 235Q45 291 58 343T98 435T172 499T283 523Q352 523 398 492T469 405T494 274Q494 198 470 133T393 27T254 -14ZM261 47Q312 47 339 79T378 163T389 275Q389 330 379 372T344 438T276 462Q237
462 213 443T174 392T155 318T150 232Q150 150 176 99T261 47Z" />
<glyph unicode="p" horiz-adv-x="581" d="M106 418Q107 437 102 446T82 455Q72 455 53 450T23 437L7 489Q20 497 39 504T80 517T127 523Q171 523 187 497T198 425L173 198L181 197L216 327Q233 392 254 435T308 501T388 523Q464 523 501 466T538 309Q538 208 507
136T421 25T297 -14Q260 -14 230 -6T181 12L170 -163L263 -175L258 -225L92 -227L75 -213L93 61L106 418ZM371 448Q349 448 334 440T305 406T274 328T230 188L195 72Q213 64 236 57T288 50Q335 50 368 83T418 175T436 308Q436 331 435 355T427 401T407 435T371
448Z" />
<glyph unicode="q" horiz-adv-x="553" d="M454 -123Q453 -145 458 -154T480 -163Q489 -163 500 -158T530 -141L553 -179Q537 -195 505 -211T439 -228Q394 -228 379 -199T366 -127L379 87L400 271L393 272L370 189Q352 122 331 77T278 9T194 -14Q141 -14 108 16T59
96T43 206Q43 300 72 371T154 482T278 523Q307 523 341 517T405 498L448 524L484 514L454 -123ZM214 58Q236 58 253 69T285 108T317 187T355 316L388 437Q369 447 341 453T290 459Q243 459 211 426T161 336T144 207Q144 136 162 97T214 58Z" />
<glyph unicode="r" horiz-adv-x="473" d="M108 416Q109 435 104 445T82 455Q65 455 25 438L8 489Q22 497 42 504T86 517T129 523Q172 523 188 496T199 419L184 278L190 277L243 402Q263 449 280 475T317 512T364 523Q405 523 424 501T444 452Q444 430 430 410T390
379L370 405Q359 420 353 424T336 428Q326 428 318 422T298 394T267 329Q243 277 228 241T203 178T189 128T182 79L173 0H89L108 416Z" />
<glyph unicode="s" horiz-adv-x="443" d="M209 46Q251 46 279 65T307 122Q307 158 277 178T207 216Q175 232 142 250T88 298T66 372Q66 395 75 421T105 470T162 508T251 523Q292 523 326 511T381 476T402 424Q402 400 388 386T352 371Q334 371 319 377T297 389L304
419Q309 440 297 453T247 466Q195 466 173 445T150 396Q150 366 179 347T246 308Q280 292 313 272T367 223T389 149Q389 102 366 65T300 7T196 -14Q149 -14 112 -3T54 30T33 80Q33 109 50 123T90 137Q103 137 117 134T138 125V99Q138 70 153 58T209 46Z" />
<glyph unicode="t" horiz-adv-x="406" d="M41 503L117 511L159 674H223L214 509H364L360 448H211L196 140Q194 99 208 78T258 57Q286 57 309 71T356 108L389 70Q363 35 323 11T232 -14Q158 -14 127 26T99 133L113 448H33L41 503Z" />
<glyph unicode="u" horiz-adv-x="597" d="M15 476Q29 489 50 499T94 516T135 523Q220 523 212 436L187 154Q183 105 190 87T219 68Q235 68 246 77T269 111T297 183L406 509H502L487 93Q486 72 492 63T513 54Q526 54 540 59T570 71L588 21Q565 7 530 -3T470 -14Q428
-14 410 11T395 88L420 356L412 357L345 139Q320 57 285 22T193 -14Q133 -14 109 25T91 153L113 414Q115 438 111 447T90 457Q79 457 65 451T37 435L15 476Z" />
<glyph unicode="v" horiz-adv-x="534" d="M412 523Q456 523 475 493T495 417Q495 372 486 315T458 201T407 94T330 16T226 -14Q201 -14 177 -9T132 13T99 62T90 149L103 420Q105 444 94 451T63 454L20 440L3 490Q20 500 55 511T123 523Q169 523 186 499T202 436L186
159Q183 112 193 85T243 58Q286 58 317 87T370 163T402 260T415 350Q417 387 410 400T382 421L346 434Q340 471 358 497T412 523Z" />
<glyph unicode="w" horiz-adv-x="790" d="M460 510Q466 482 468 450T471 385Q471 330 466 276T454 171Q446 115 456 87T510 59Q548 59 576 88T625 163T657 258T670 348Q672 386 664 400T635 421L599 434Q595 472 610 497T663 523Q708 523 729 494T750 410Q750
363 741 307T713 194T663 90T591 15T493 -14Q470 -14 446 -5T403 26T380 87Q354 38 316 12T219 -14Q200 -14 177 -9T133 13T100 62T90 149L103 421Q105 445 93 452T61 453L20 440L3 490Q15 497 35 504T78 517T123 523Q168 523 186 499T202 436L186 163Q183 112
195 85T244 58Q282 58 307 83T348 152T370 251T377 366Q377 400 375 434T368 499L460 510Z" />
<glyph unicode="x" horiz-adv-x="540" d="M298 312L353 360Q386 389 395 409T384 445L355 466Q361 491 380 507T427 523Q458 523 474 503T491 458Q491 435 481 415T446 370T374 304L322 261L396 102Q410 72 421 62T449 51Q466 51 478 56T503 69L526 30Q507 14
480 0T417 -14Q377 -14 352 2T309 58L239 207L158 142Q124 115 122 93T148 60L172 51Q168 23 149 5T102 -14Q67 -14 51 7T34 55Q34 82 44 103T77 146T138 199L215 259L142 414Q130 442 118 448T95 454Q84 454 68 448T39 436L21 489Q38 498 68 510T135 523Q172 523
194 507T231 458L298 312Z" />
<glyph unicode="y" horiz-adv-x="529" d="M300 -57Q279 -104 257 -143T201 -206T113 -229Q74 -229 48 -210T21 -158Q21 -128 39 -108T90 -84L105 -114Q119 -140 128 -148T152 -157Q175 -157 189 -138T224 -74L256 0H243Q211 0 191 14T153 59Q128 101 113 178T97
352Q97 369 97 390T98 428Q98 444 93 450T76 456Q66 456 48 451T16 439L-1 490Q16 499 50 511T119 523Q162 523 179 499T196 435Q196 418 195 400T194 360Q194 272 203 211T232 109Q243 85 252 78T275 70H288L399 338Q415 375 412 393T382 421L347 434Q341 474
360 498T417 523Q454 523 473 500T493 438Q493 417 487 390T465 324T424 226L300 -57Z" />
<glyph unicode="z" horiz-adv-x="477" d="M78 509H436L449 468L142 80Q158 84 174 85T206 87Q238 87 265 81T318 74Q334 74 344 82T366 114T393 186H444L415 0Q370 -11 324 -8T234 2T151 9Q122 9 104 5T72 -7L37 42L342 433H188Q162 433 148 427T125 399T105 336L53
333L67 498L78 509Z" />
<glyph unicode="{" horiz-adv-x="372" d="M61 337Q109 338 134 360T159 432Q159 470 156 520T150 620T147 701Q147 758 182 790T278 822Q296 822 317 819T352 812L341 760Q327 763 316 764T295 765Q270 765 258 749T246 703Q246 685 247 651T251 578T254 501T256
439Q256 403 243 377T206 333T146 308Q196 293 220 263T244 176Q244 149 240 109T231 27T221 -51T217 -104Q217 -141 229 -155T267 -170Q277 -170 288 -169T312 -166L321 -217Q303 -222 283 -224T244 -227Q183 -227 150 -196T117 -107Q117 -83 121 -46T132 33T143
115T148 183Q148 220 139 240T110 268T59 276L61 337Z" />
<glyph unicode="|" horiz-adv-x="424" d="M244 -110H174L206 802H275L244 -110Z" />
<glyph unicode="}" horiz-adv-x="372" d="M330 275Q281 274 257 251T232 180Q232 152 234 113T238 33T243 -45T245 -107Q244 -163 209 -195T114 -227Q96 -227 75 -225T39 -218L51 -166Q65 -168 76 -169T97 -170Q146 -170 146 -109Q146 -90 144 -54T141 26T138
108T136 172Q136 224 163 257T245 304Q194 319 171 350T148 436Q148 462 151 499T159 576T167 648T171 699Q171 735 160 750T121 765Q111 765 99 764T76 760L68 812Q100 822 144 822Q205 822 238 791T271 701Q271 678 267 644T258 570T248 494T244 429Q244 378
263 358T333 336L330 275Z" />
<glyph unicode="~" horiz-adv-x="582" d="M450 241Q425 241 392 247T324 262T257 276T202 282Q186 282 177 274T150 237L95 257Q120 316 142 337T200 359Q224 359 257 353T326 338T394 324T450 318Q465 318 475 328T500 363L554 343Q538 300 522 279T488 249T450 241Z" />
<glyph unicode="&#xa0;" horiz-adv-x="190" />
<glyph unicode="&#xa1;" horiz-adv-x="333" d="M212 -26Q212 -57 212 -86T211 -142Q210 -175 193 -191T146 -208Q126 -208 108 -200T79 -180Q92 -141 103 -97T124 4T142 136T155 313H209L212 -26ZM260 454Q260 421 238 402T182 382Q149 382 129 401T109 453Q109
486 131 503T187 521Q220 521 240 504T260 454Z" />
<glyph unicode="&#xa2;" horiz-adv-x="493" d="M171 -32L295 642H338L214 -32H171ZM295 570Q339 570 374 555T429 511T450 441Q450 411 433 393T386 374Q364 374 346 386T320 417L342 442Q362 465 359 480T337 503T294 511Q248 511 216 484T166 405T149 275Q149
228 161 190T200 128T266 105Q303 105 337 125T402 180L439 142Q430 130 414 112T373 76T317 46T247 33Q182 33 137 63T69 148T46 273Q46 359 76 426T162 531T295 570Z" />
<glyph unicode="&#xa3;" horiz-adv-x="596" d="M66 34Q110 67 148 81T221 97Q200 135 178 179T138 264T111 335H27L34 391H97Q93 407 92 423T90 459Q90 539 121 596T210 684T344 715Q430 715 478 679T527 585Q527 555 510 537T465 518Q444 518 425 526T396 544L416
582Q431 611 414 634T340 657Q266 657 231 610T195 468Q195 450 196 430T198 391H428L424 335H207Q213 306 224 273T252 196T295 93Q311 90 325 86T352 75Q373 67 394 61T439 55Q464 55 478 69T493 106Q493 135 471 150T422 177L442 225Q507 208 542 177T577 93Q577
66 564 41T524 1T461 -14Q427 -14 399 -7T340 12Q313 22 290 28T239 35Q203 35 166 22T97 -14L66 34Z" />
<glyph unicode="&#xa4;" horiz-adv-x="539" d="M95 311Q95 341 102 367T125 416L63 499L100 534L180 468Q231 496 287 496Q343 496 384 473L468 537L502 502L436 422Q459 384 459 323Q459 291 451 263T425 210L488 126L452 91L367 159Q346 147 321 141T268 135Q211
135 171 157L85 92L51 127L118 209Q107 229 101 255T95 311ZM182 315Q182 256 204 224T271 192Q320 192 346 225T372 317Q372 378 351 407T283 437Q236 437 209 406T182 315Z" />
<glyph unicode="&#xa5;" horiz-adv-x="674" d="M260 324L88 341L151 381L306 364L260 324ZM81 204L89 260H604L602 204H81ZM551 324L403 341L472 381L607 364L551 324ZM368 332H372L543 635L457 653L463 700H703L696 649L617 632L399 261L391 62L485 49L479 0H203L209
49L291 62L302 260L101 635L27 650L34 700H300L294 650L210 637L368 332Z" />
<glyph unicode="&#xa6;" horiz-adv-x="424" d="M244 -110H174L188 289H257L244 -110ZM263 432H193L206 803H275L263 432Z" />
<glyph unicode="&#xa7;" horiz-adv-x="622" d="M549 234Q549 210 542 189T527 157L483 165Q482 209 459 240T398 294T320 341T241 390T181 453T157 540Q157 585 179 625T244 690T350 715Q398 715 436 700T497 657T520 593Q520 564 503 547T462 530Q439 530 421
539T390 560L407 594Q421 623 402 641T345 659Q291 659 269 630T246 561Q246 528 267 502T324 452T397 407T471 359T527 304T549 234ZM101 325Q101 349 109 370T124 403L168 394Q168 350 191 319T252 264T330 218T409 169T470 107T494 19Q494 -25 472 -65T406 -130T300
-156Q254 -156 215 -143T152 -104T128 -41Q128 -9 148 8T190 26Q213 26 231 18T261 -3L244 -37Q230 -65 248 -82T305 -100Q359 -100 382 -70T405 -1Q405 32 383 58T326 107T253 153T179 200T123 255T101 325Z" />
<glyph unicode="&#xa8;" horiz-adv-x="500" d="M115 682Q115 710 134 729T183 749Q214 749 230 732T247 687Q247 658 228 639T178 620Q149 620 132 637T115 682ZM315 682Q315 710 334 729T384 749Q414 749 430 732T447 687Q447 658 428 639T379 620Q349 620 332
637T315 682Z" />
<glyph unicode="&#xa9;" horiz-adv-x="795" d="M398 -12Q283 -12 208 31T95 147T57 313Q57 393 84 455T158 561T267 628T400 651Q503 651 579 612T698 499T740 328Q740 226 698 150T578 31T398 -12ZM396 109Q346 109 312 127T257 176T227 240T218 306Q218 378
245 426T316 499T414 524Q453 524 484 509T534 471T553 419Q553 403 543 392T515 381Q501 381 490 386T470 399L480 418Q493 441 474 460T416 479Q360 479 328 438T295 311Q295 272 306 237T341 181T404 159Q442 159 469 176T521 219L548 190Q526 162 489 136T396
109ZM400 44Q484 44 545 79T640 176T674 322Q674 408 640 469T544 563T400 596Q322 596 259 562T160 465T124 314Q124 234 156 173T250 78T400 44Z" />
<glyph unicode="&#xaa;" horiz-adv-x="446" d="M378 445Q377 429 380 422T396 414Q404 414 412 418T431 430L448 399Q435 386 410 374T362 362Q330 362 319 382T310 433L322 564H317L301 507Q289 463 274 431T236 380T177 362Q118 362 90 405T62 515Q62 582 84
633T145 713T234 742Q259 742 280 737T316 724L372 741L387 735L378 445ZM189 419Q212 419 226 436T255 492T287 598L310 677Q297 684 279 689T242 694Q211 694 188 671T153 608T140 517Q140 464 152 442T189 419Z" />
<glyph unicode="&#xab;" horiz-adv-x="502" d="M275 445Q246 396 215 354T144 269Q166 245 186 218T226 159T269 83L233 56Q181 118 135 162T41 241L51 302Q103 339 153 383T240 472L275 445ZM469 445Q440 396 409 354T338 269Q360 245 380 218T420 159T463 83L427
56Q375 118 329 162T235 241L245 302Q297 339 347 383T434 472L469 445Z" />
<glyph unicode="&#xac;" horiz-adv-x="582" d="M496 151H419L425 299H68L71 369H505L496 151Z" />
<glyph unicode="&#xad;" horiz-adv-x="360" d="M45 329H319L315 243H42L45 329Z" />
<glyph unicode="&#xae;" horiz-adv-x="463" d="M248 399Q190 399 148 421T84 483T62 577Q62 632 86 674T153 739T249 763Q334 763 384 714T435 584Q435 530 412 488T346 423T248 399ZM328 464Q338 464 348 467T367 478L362 493Q358 491 354 490T344 488Q334 488
328 498T313 532Q306 554 296 564T267 582V585Q293 589 312 604T332 644Q332 674 309 688T241 703H157L152 686L180 682L173 490L143 486L141 469H242L244 486L214 491L220 682H237Q264 682 277 673T290 643Q290 621 276 609T238 596H236L232 576Q245 574 253 566T268
535Q282 493 293 479T328 464Z" />
<glyph unicode="&#xaf;" horiz-adv-x="500" d="M141 713H427L422 635H136L141 713Z" />
<glyph unicode="&#xb0;" horiz-adv-x="329" d="M168 547Q104 547 74 581T43 665Q43 713 75 749T171 785Q232 785 263 753T294 669Q294 619 262 583T168 547ZM170 600Q197 600 214 618T231 667Q231 699 214 715T168 732Q139 732 123 714T107 666Q107 637 122 619T170 600Z" />
<glyph unicode="&#xb1;" horiz-adv-x="582" d="M330 305L323 143H247L254 305H78L81 375H257L264 530H340L333 375H514L511 305H330ZM67 1L70 71H503L499 1H67Z" />
<glyph unicode="&#xb2;" horiz-adv-x="389" d="M199 793Q149 793 133 772T137 725L153 705Q147 690 133 683T101 676Q78 676 65 691T52 726Q52 759 73 784T130 823T213 837Q289 837 330 806T372 715Q372 689 362 663T326 606T256 536T145 444H254Q283 444 298
448T323 468T344 514H382L369 374H61L60 423Q133 489 178 533T246 608T277 662T285 710Q285 747 264 770T199 793Z" />
<glyph unicode="&#xb3;" horiz-adv-x="395" d="M365 738Q365 701 341 672T276 626V620Q330 614 356 590T382 517Q382 474 356 439T282 383T174 362Q137 362 109 371T64 398T47 442Q47 467 60 481T100 496Q114 496 128 488T148 469L136 446Q128 430 140 420T179
409Q234 409 265 439T296 518Q296 554 275 571T213 588Q200 588 188 587T166 583L160 629Q223 637 254 663T286 731Q286 762 265 777T203 793Q166 793 150 778T153 741L167 726Q161 710 148 701T118 691Q94 691 81 706T68 742Q68 771 88 792T142 826T218 839Q285
839 325 814T365 738Z" />
<glyph unicode="&#xb4;" horiz-adv-x="500" d="M307 750Q319 766 329 773T353 780Q376 780 387 761T394 704L222 581L198 607L307 750Z" />
<glyph unicode="&#xb5;" horiz-adv-x="564" d="M439 -14Q410 -14 391 -1T363 34T352 78H351Q336 49 315 29T271 -3T224 -14Q196 -14 174 -3T139 18H138Q139 -59 147 -119T163 -211L57 -230L45 -223Q45 -205 45 -182T44 -131T44 -78Q44 -7 47 87T58 289T72 509L171
518L183 511Q175 456 169 403T157 303T148 215T143 142T141 87Q154 78 175 70T213 62Q271 62 304 104T341 225L359 509L458 518L470 511Q466 486 461 445T451 356T441 262T433 179T430 124Q430 93 440 74T476 55Q487 55 503 61T530 75L551 33Q525 13 496 0T439
-14Z" />
<glyph unicode="&#xb6;" horiz-adv-x="578" d="M336 -80Q339 -55 340 -34T343 23L369 700H550L544 652L461 635L442 122Q440 61 428 2T396 -107T352 -184Q314 -229 268 -229Q238 -229 219 -215T199 -178Q199 -143 223 -109L267 -128Q295 -140 313 -127T336 -80ZM288
227H272Q169 227 113 284T57 447Q57 570 119 635T301 700H313L288 227Z" />
<glyph unicode="&#xb7;" horiz-adv-x="320" d="M88 305Q88 340 112 362T173 385Q209 385 231 365T253 312Q253 275 229 255T167 234Q132 234 110 252T88 305Z" />
<glyph unicode="&#xb8;" horiz-adv-x="500" d="M275 13L254 -51Q280 -52 302 -59T339 -84T353 -131Q353 -175 320 -203T231 -231Q210 -231 187 -226T147 -213L163 -165Q172 -168 188 -172T220 -176Q242 -176 256 -166T271 -134Q271 -116 261 -108T235 -98T205
-99L196 -78L224 13H275Z" />
<glyph unicode="&#xb9;" horiz-adv-x="302" d="M216 430L295 417L293 374H50L53 417L137 430L154 775H64L70 820L220 836L235 830L216 430Z" />
<glyph unicode="&#xba;" horiz-adv-x="427" d="M223 362Q150 362 109 410T68 538Q68 592 86 638T142 712T244 741Q322 741 361 694T401 566Q401 512 383 466T325 391T223 362ZM228 411Q265 411 284 432T311 489T319 567Q319 624 302 658T238 693Q203 693 184 671T158
614T151 536Q151 478 169 445T228 411Z" />
<glyph unicode="&#xbb;" horiz-adv-x="502" d="M50 82Q89 143 121 186T186 264Q162 293 143 319T106 375T70 443L107 470Q195 358 291 286L278 225Q229 192 177 146T84 56L50 82ZM244 82Q283 143 315 186T380 264Q356 293 337 319T300 375T264 443L301 470Q389
358 485 286L472 225Q423 192 371 146T278 56L244 82Z" />
<glyph unicode="&#xbc;" horiz-adv-x="958" d="M651 713H721L308 -12H236L651 713ZM226 560L305 547L303 504H60L63 547L147 560L164 905H74L80 950L230 966L245 960L226 560ZM826 136H904L902 82H824L821 0H741L744 82H528L521 131L750 447L829 457L840 451L826
136ZM746 136L757 378L585 136H746Z" />
<glyph unicode="&#xbd;" horiz-adv-x="931" d="M628 713H698L285 -12H213L628 713ZM221 560L300 547L298 504H55L58 547L142 560L159 905H69L75 950L225 966L240 960L221 560ZM723 419Q673 419 657 398T661 351L677 331Q671 316 657 309T625 302Q602 302 589 317T576
352Q576 385 597 410T654 449T737 463Q813 463 854 432T896 341Q896 315 886 289T850 232T780 162T669 70H778Q807 70 822 74T847 94T868 140H906L893 0H585L584 49Q657 115 702 159T770 234T801 288T809 336Q809 373 788 396T723 419Z" />
<glyph unicode="&#xbe;" horiz-adv-x="966" d="M701 713H771L358 -12H286L701 713ZM853 136H931L929 82H851L848 0H768L771 82H555L548 131L777 447L856 457L867 451L853 136ZM773 136L784 378L612 136H773ZM390 867Q390 830 366 801T301 755V749Q355 743 381
719T407 646Q407 603 381 568T307 512T199 491Q162 491 134 500T89 527T72 571Q72 596 85 610T125 625Q139 625 153 617T173 598L161 575Q153 559 165 549T204 538Q259 538 290 568T321 647Q321 683 300 700T238 717Q225 717 213 716T191 712L185 758Q248 766 279
792T311 860Q311 891 290 906T228 922Q191 922 175 907T178 870L192 855Q186 839 173 830T143 820Q119 820 106 835T93 871Q93 900 113 921T167 955T243 968Q310 968 350 943T390 867Z" />
<glyph unicode="&#xbf;" horiz-adv-x="514" d="M358 123Q263 101 217 57T170 -45Q170 -96 200 -125T287 -154Q326 -154 350 -142T379 -111T365 -70L344 -46Q351 -27 368 -15T407 -2Q437 -2 453 -19T470 -64Q470 -110 440 -142T363 -191T269 -208Q213 -208 169
-190T99 -135T73 -38Q73 10 94 53T160 132T278 190L252 313H320L358 123ZM362 454Q362 421 340 402T284 382Q251 382 231 401T211 453Q211 486 233 503T289 521Q323 521 342 504T362 454Z" />
<glyph unicode="&#xc0;" horiz-adv-x="692" d="M428 707L609 59L691 48L685 0H411L417 48L497 60L453 229H218L159 60L249 48L243 0H7L13 48L88 60L318 695L428 707ZM238 289H437L354 615H351L238 289ZM463 783L442 752L288 820Q266 829 256 843T246 872Q246 890
261 905T304 925L463 783Z" />
<glyph unicode="&#xc1;" horiz-adv-x="692" d="M428 707L609 59L691 48L685 0H411L417 48L497 60L453 229H218L159 60L249 48L243 0H7L13 48L88 60L318 695L428 707ZM238 289H437L354 615H351L238 289ZM414 902Q427 914 436 919T457 924Q476 924 488 911T500 877Q500
869 498 859T491 838L301 752L281 782L414 902Z" />
<glyph unicode="&#xc2;" horiz-adv-x="692" d="M428 707L609 59L691 48L685 0H411L417 48L497 60L453 229H218L159 60L249 48L243 0H7L13 48L88 60L318 695L428 707ZM238 289H437L354 615H351L238 289ZM543 777L518 750L379 836L242 751L219 780L336 908Q365 938
384 938Q393 938 398 937T408 934L543 777Z" />
<glyph unicode="&#xc3;" horiz-adv-x="692" d="M428 707L609 59L691 48L685 0H411L417 48L497 60L453 229H218L159 60L249 48L243 0H7L13 48L88 60L318 695L428 707ZM238 289H437L354 615H351L238 289ZM452 775Q430 775 410 780T363 799Q330 815 314 821T291 828Q279
828 271 821T245 790L212 810Q230 848 245 868T275 897T310 906Q322 906 339 901T397 878Q429 865 444 860T470 854Q482 854 491 861T516 891L550 871Q522 816 501 796T452 775Z" />
<glyph unicode="&#xc4;" horiz-adv-x="692" d="M428 707L609 59L691 48L685 0H411L417 48L497 60L453 229H218L159 60L249 48L243 0H7L13 48L88 60L318 695L428 707ZM238 289H437L354 615H351L238 289ZM214 833Q214 861 233 880T282 900Q312 900 329 883T346 838Q346
809 327 790T277 771Q248 771 231 788T214 833ZM414 833Q414 861 433 880T483 900Q513 900 529 883T546 838Q546 809 527 790T478 771Q448 771 431 788T414 833Z" />
<glyph unicode="&#xc5;" horiz-adv-x="692" d="M428 707L609 59L691 48L685 0H411L417 48L497 60L453 229H218L159 60L249 48L243 0H7L13 48L88 60L318 695L428 707ZM238 289H437L354 615H351L238 289ZM376 742Q321 742 296 769T271 841Q271 869 284 893T323 933T386
948Q438 948 463 922T488 850Q488 804 458 773T376 742ZM379 791Q404 791 414 808T425 847Q425 869 415 884T381 899Q356 899 345 882T333 843Q333 823 343 807T379 791Z" />
<glyph unicode="&#xc6;" horiz-adv-x="920" d="M768 700L782 530L724 521L713 557Q704 588 694 606T666 632T617 640H448L515 393H754L749 326H533L603 61H707Q753 61 773 79T810 145L824 186H882L858 0H411L417 48L497 60L453 229H218L159 60L249 48L243 0H7L13
48L88 60L318 700H768ZM238 289H437L354 615H351L238 289Z" />
<glyph unicode="&#xc7;" horiz-adv-x="626" d="M486 565Q503 601 473 625T378 649Q276 649 221 567T165 333Q165 250 188 189T254 94T357 61Q410 61 456 87T550 171L593 128Q490 -14 346 -14Q258 -14 194 27T94 144T58 324Q58 444 98 531T210 667T381 715Q444
715 494 695T573 640T603 561Q603 534 586 517T544 500Q500 500 469 531L486 565ZM374 13L353 -51Q379 -52 401 -59T438 -84T452 -131Q452 -175 419 -203T330 -231Q309 -231 286 -226T246 -213L262 -165Q271 -168 287 -172T319 -176Q341 -176 355 -166T370 -134Q370
-116 360 -108T334 -98T304 -99L295 -78L323 13H374Z" />
<glyph unicode="&#xc8;" horiz-adv-x="599" d="M161 634L76 651L82 700H543L557 530L499 521L488 557Q478 591 467 609T439 633T392 640H261L251 393H493L488 326H248L237 61H386Q430 61 451 78T489 145L503 186H561L537 0H51L57 49L138 62L161 634ZM426 783L405
752L251 820Q229 829 219 843T209 872Q209 890 224 905T267 925L426 783Z" />
<glyph unicode="&#xc9;" horiz-adv-x="599" d="M161 634L76 651L82 700H543L557 530L499 521L488 557Q478 591 467 609T439 633T392 640H261L251 393H493L488 326H248L237 61H386Q430 61 451 78T489 145L503 186H561L537 0H51L57 49L138 62L161 634ZM377 902Q390
914 399 919T420 924Q439 924 451 911T463 877Q463 869 461 859T454 838L264 752L244 782L377 902Z" />
<glyph unicode="&#xca;" horiz-adv-x="599" d="M161 634L76 651L82 700H543L557 530L499 521L488 557Q478 591 467 609T439 633T392 640H261L251 393H493L488 326H248L237 61H386Q430 61 451 78T489 145L503 186H561L537 0H51L57 49L138 62L161 634ZM506 777L481
750L342 836L205 751L182 780L299 908Q328 938 347 938Q356 938 361 937T371 934L506 777Z" />
<glyph unicode="&#xcb;" horiz-adv-x="599" d="M161 634L76 651L82 700H543L557 530L499 521L488 557Q478 591 467 609T439 633T392 640H261L251 393H493L488 326H248L237 61H386Q430 61 451 78T489 145L503 186H561L537 0H51L57 49L138 62L161 634ZM177 833Q177
861 196 880T245 900Q275 900 292 883T309 838Q309 809 290 790T240 771Q211 771 194 788T177 833ZM377 833Q377 861 396 880T446 900Q476 900 492 883T509 838Q509 809 490 790T441 771Q411 771 394 788T377 833Z" />
<glyph unicode="&#xcc;" horiz-adv-x="367" d="M161 634L76 651L82 700H350L344 651L260 635L238 62L332 49L326 0H49L55 49L137 62L161 634ZM558 783L537 752L383 820Q361 829 351 843T341 872Q341 890 356 905T399 925L558 783Z" />
<glyph unicode="&#xcd;" horiz-adv-x="367" d="M161 634L76 651L82 700H350L344 651L260 635L238 62L332 49L326 0H49L55 49L137 62L161 634ZM509 902Q522 914 531 919T552 924Q571 924 583 911T595 877Q595 869 593 859T586 838L396 752L376 782L509 902Z" />
<glyph unicode="&#xce;" horiz-adv-x="367" d="M161 634L76 651L82 700H350L344 651L260 635L238 62L332 49L326 0H49L55 49L137 62L161 634ZM638 777L613 750L474 836L337 751L314 780L431 908Q460 938 479 938Q488 938 493 937T503 934L638 777Z" />
<glyph unicode="&#xcf;" horiz-adv-x="367" d="M161 634L76 651L82 700H350L344 651L260 635L238 62L332 49L326 0H49L55 49L137 62L161 634ZM309 833Q309 861 328 880T377 900Q407 900 424 883T441 838Q441 809 422 790T372 771Q343 771 326 788T309 833ZM509
833Q509 861 528 880T578 900Q608 900 624 883T641 838Q641 809 622 790T573 771Q543 771 526 788T509 833Z" />
<glyph unicode="&#xd0;" horiz-adv-x="733" d="M49 393H446L438 329H40L49 393ZM44 0L49 48L137 62L162 634L76 651L82 700H356Q518 700 607 620T697 392Q697 268 647 181T501 47T269 0H44ZM238 59H262Q420 59 504 142T588 383Q588 507 523 575T337 643H261L238 59Z" />
<glyph unicode="&#xd1;" horiz-adv-x="742" d="M562 128L580 634L495 651L501 700H740L734 651L651 634L626 0L522 -12L223 614L203 62L295 49L289 0H44L50 49L130 62L155 638L76 649L82 700H292L562 128ZM479 775Q457 775 437 780T390 799Q357 815 341 821T318
828Q306 828 298 821T272 790L239 810Q257 848 272 868T302 897T337 906Q349 906 366 901T424 878Q456 865 471 860T497 854Q509 854 518 861T543 891L577 871Q549 816 528 796T479 775Z" />
<glyph unicode="&#xd2;" horiz-adv-x="716" d="M59 328Q59 448 99 534T213 668T388 715Q478 715 543 675T645 560T681 382Q681 263 641 174T527 36T356 -14Q266 -14 199 28T95 147T59 328ZM166 349Q166 211 220 133T369 54Q467 54 518 134T570 364Q570 500 519
575T374 650Q275 650 221 571T166 349ZM476 783L455 752L301 820Q279 829 269 843T259 872Q259 890 274 905T317 925L476 783Z" />
<glyph unicode="&#xd3;" horiz-adv-x="716" d="M59 328Q59 448 99 534T213 668T388 715Q478 715 543 675T645 560T681 382Q681 263 641 174T527 36T356 -14Q266 -14 199 28T95 147T59 328ZM166 349Q166 211 220 133T369 54Q467 54 518 134T570 364Q570 500 519
575T374 650Q275 650 221 571T166 349ZM427 902Q440 914 449 919T470 924Q489 924 501 911T513 877Q513 869 511 859T504 838L314 752L294 782L427 902Z" />
<glyph unicode="&#xd4;" horiz-adv-x="716" d="M59 328Q59 448 99 534T213 668T388 715Q478 715 543 675T645 560T681 382Q681 263 641 174T527 36T356 -14Q266 -14 199 28T95 147T59 328ZM166 349Q166 211 220 133T369 54Q467 54 518 134T570 364Q570 500 519
575T374 650Q275 650 221 571T166 349ZM556 777L531 750L392 836L255 751L232 780L349 908Q378 938 397 938Q406 938 411 937T421 934L556 777Z" />
<glyph unicode="&#xd5;" horiz-adv-x="716" d="M59 328Q59 448 99 534T213 668T388 715Q478 715 543 675T645 560T681 382Q681 263 641 174T527 36T356 -14Q266 -14 199 28T95 147T59 328ZM166 349Q166 211 220 133T369 54Q467 54 518 134T570 364Q570 500 519
575T374 650Q275 650 221 571T166 349ZM465 775Q443 775 423 780T376 799Q343 815 327 821T304 828Q292 828 284 821T258 790L225 810Q243 848 258 868T288 897T323 906Q335 906 352 901T410 878Q442 865 457 860T483 854Q495 854 504 861T529 891L563 871Q535
816 514 796T465 775Z" />
<glyph unicode="&#xd6;" horiz-adv-x="716" d="M59 328Q59 448 99 534T213 668T388 715Q478 715 543 675T645 560T681 382Q681 263 641 174T527 36T356 -14Q266 -14 199 28T95 147T59 328ZM166 349Q166 211 220 133T369 54Q467 54 518 134T570 364Q570 500 519
575T374 650Q275 650 221 571T166 349ZM227 833Q227 861 246 880T295 900Q325 900 342 883T359 838Q359 809 340 790T290 771Q261 771 244 788T227 833ZM427 833Q427 861 446 880T496 900Q526 900 542 883T559 838Q559 809 540 790T491 771Q461 771 444 788T427
833Z" />
<glyph unicode="&#xd7;" horiz-adv-x="582" d="M289 257L147 121L100 169L241 307L104 447L158 495L291 356L437 496L483 446L337 306L476 163L424 113L289 257Z" />
<glyph unicode="&#xd8;" horiz-adv-x="717" d="M613 715H692L122 -14H41L613 715ZM59 328Q59 448 99 534T213 668T388 715Q478 715 543 675T645 560T681 382Q681 263 641 174T527 36T356 -14Q266 -14 199 28T95 147T59 328ZM166 349Q166 211 220 133T369 54Q467
54 518 134T570 364Q570 500 519 575T374 650Q275 650 221 571T166 349Z" />
<glyph unicode="&#xd9;" horiz-adv-x="761" d="M626 62L711 49L704 0H542L535 12L571 365H567Q536 226 499 143T413 23T299 -14Q204 -14 160 45T122 224L144 636L69 651L75 700H334L328 651L244 634L223 230Q219 142 240 104T315 66Q359 66 394 97T455 181T502
300T536 436T559 570L568 634L486 651L492 700H735L729 651L657 634L626 62ZM496 783L475 752L321 820Q299 829 289 843T279 872Q279 890 294 905T337 925L496 783Z" />
<glyph unicode="&#xda;" horiz-adv-x="761" d="M626 62L711 49L704 0H542L535 12L571 365H567Q536 226 499 143T413 23T299 -14Q204 -14 160 45T122 224L144 636L69 651L75 700H334L328 651L244 634L223 230Q219 142 240 104T315 66Q359 66 394 97T455 181T502
300T536 436T559 570L568 634L486 651L492 700H735L729 651L657 634L626 62ZM446 902Q459 914 468 919T489 924Q508 924 520 911T532 877Q532 869 530 859T523 838L333 752L313 782L446 902Z" />
<glyph unicode="&#xdb;" horiz-adv-x="761" d="M626 62L711 49L704 0H542L535 12L571 365H567Q536 226 499 143T413 23T299 -14Q204 -14 160 45T122 224L144 636L69 651L75 700H334L328 651L244 634L223 230Q219 142 240 104T315 66Q359 66 394 97T455 181T502
300T536 436T559 570L568 634L486 651L492 700H735L729 651L657 634L626 62ZM575 777L550 750L411 836L274 751L251 780L368 908Q397 938 416 938Q425 938 430 937T440 934L575 777Z" />
<glyph unicode="&#xdc;" horiz-adv-x="761" d="M626 62L711 49L704 0H542L535 12L571 365H567Q536 226 499 143T413 23T299 -14Q204 -14 160 45T122 224L144 636L69 651L75 700H334L328 651L244 634L223 230Q219 142 240 104T315 66Q359 66 394 97T455 181T502
300T536 436T559 570L568 634L486 651L492 700H735L729 651L657 634L626 62ZM247 833Q247 861 266 880T315 900Q345 900 362 883T379 838Q379 809 360 790T310 771Q281 771 264 788T247 833ZM447 833Q447 861 466 880T516 900Q546 900 562 883T579 838Q579 809
560 790T511 771Q481 771 464 788T447 833Z" />
<glyph unicode="&#xdd;" horiz-adv-x="674" d="M368 332H372L543 635L457 653L463 700H703L696 649L617 632L399 261L391 62L485 49L479 0H203L209 49L291 62L302 260L101 635L27 650L34 700H300L294 650L210 637L368 332ZM415 902Q428 914 437 919T458 924Q477
924 489 911T501 877Q501 869 499 859T492 838L302 752L282 782L415 902Z" />
<glyph unicode="&#xde;" horiz-adv-x="593" d="M44 0L49 47L138 63L163 634L76 651L82 700H374L368 651L259 637L256 559H317Q392 559 450 540T540 478T573 363Q573 301 543 253T456 179T322 152H241L237 62L362 48L358 0H44ZM243 209H316Q464 209 464 363Q464
416 443 445T384 488T299 502H255L243 209Z" />
<glyph unicode="&#xdf;" horiz-adv-x="615" d="M415 46Q453 46 479 69T506 130Q506 157 491 176T452 209T402 239T351 271T312 313T297 372Q297 408 312 436T348 487T392 534T429 584T444 646Q444 690 415 711T341 732Q274 732 241 695T205 602L186 122Q184 68
173 10T142 -100T95 -183Q77 -205 56 -217T10 -229Q-18 -229 -37 -215T-57 -178Q-57 -164 -52 -146T-32 -110L10 -127Q39 -139 57 -127T80 -81Q83 -58 84 -35T86 23L106 555Q109 621 137 672T219 753T351 782Q397 782 438 769T506 727T532 653Q532 619 517 592T480
541T435 497T398 454T383 404Q383 377 403 358T453 321T513 283T563 232T584 155Q584 110 563 72T500 10T401 -14Q327 -14 284 13T240 80Q240 109 257 123T299 137Q311 137 324 134T344 126V98Q344 70 359 58T415 46Z" />
<glyph unicode="&#xe0;" horiz-adv-x="576" d="M472 95Q471 71 476 62T497 52Q507 52 519 58T545 75L570 34Q554 18 522 2T458 -14Q375 -14 384 87L401 271L394 272L372 191Q354 125 333 80T281 10T200 -14Q147 -14 113 13T61 89T44 201Q44 296 73 368T156 482T279
523Q314 523 344 515T393 498L463 521L485 511L472 95ZM216 58Q238 58 254 69T285 108T316 187T355 316L388 437Q369 447 342 453T289 459Q245 459 213 426T163 334T146 200Q146 126 162 92T216 58ZM386 607L360 580L221 677Q190 699 192 728Q192 747 208 761T259
775L386 607Z" />
<glyph unicode="&#xe1;" horiz-adv-x="576" d="M472 95Q471 71 476 62T497 52Q507 52 519 58T545 75L570 34Q554 18 522 2T458 -14Q375 -14 384 87L401 271L394 272L372 191Q354 125 333 80T281 10T200 -14Q147 -14 113 13T61 89T44 201Q44 296 73 368T156 482T279
523Q314 523 344 515T393 498L463 521L485 511L472 95ZM216 58Q238 58 254 69T285 108T316 187T355 316L388 437Q369 447 342 453T289 459Q245 459 213 426T163 334T146 200Q146 126 162 92T216 58ZM334 750Q346 766 356 773T380 780Q403 780 414 761T421 704L249
581L225 607L334 750Z" />
<glyph unicode="&#xe2;" horiz-adv-x="576" d="M472 95Q471 71 476 62T497 52Q507 52 519 58T545 75L570 34Q554 18 522 2T458 -14Q375 -14 384 87L401 271L394 272L372 191Q354 125 333 80T281 10T200 -14Q147 -14 113 13T61 89T44 201Q44 296 73 368T156 482T279
523Q314 523 344 515T393 498L463 521L485 511L472 95ZM216 58Q238 58 254 69T285 108T316 187T355 316L388 437Q369 447 342 453T289 459Q245 459 213 426T163 334T146 200Q146 126 162 92T216 58ZM459 606L432 580L307 679L179 581L155 607L263 748Q276 765 286
772T310 780Q319 780 326 779T341 775L459 606Z" />
<glyph unicode="&#xe3;" horiz-adv-x="576" d="M472 95Q471 71 476 62T497 52Q507 52 519 58T545 75L570 34Q554 18 522 2T458 -14Q375 -14 384 87L401 271L394 272L372 191Q354 125 333 80T281 10T200 -14Q147 -14 113 13T61 89T44 201Q44 296 73 368T156 482T279
523Q314 523 344 515T393 498L463 521L485 511L472 95ZM216 58Q238 58 254 69T285 108T316 187T355 316L388 437Q369 447 342 453T289 459Q245 459 213 426T163 334T146 200Q146 126 162 92T216 58ZM381 620Q359 620 339 625T292 644Q230 673 220 673Q208 673 199
666T174 635L140 655Q159 693 174 713T204 742T239 751Q251 751 268 746T326 723Q353 712 371 706T399 699Q411 699 420 706T445 736L479 716Q451 661 430 641T381 620Z" />
<glyph unicode="&#xe4;" horiz-adv-x="576" d="M472 95Q471 71 476 62T497 52Q507 52 519 58T545 75L570 34Q554 18 522 2T458 -14Q375 -14 384 87L401 271L394 272L372 191Q354 125 333 80T281 10T200 -14Q147 -14 113 13T61 89T44 201Q44 296 73 368T156 482T279
523Q314 523 344 515T393 498L463 521L485 511L472 95ZM216 58Q238 58 254 69T285 108T316 187T355 316L388 437Q369 447 342 453T289 459Q245 459 213 426T163 334T146 200Q146 126 162 92T216 58ZM142 682Q142 710 161 729T210 749Q241 749 257 732T274 687Q274
658 255 639T205 620Q176 620 159 637T142 682ZM342 682Q342 710 361 729T411 749Q441 749 457 732T474 687Q474 658 455 639T406 620Q376 620 359 637T342 682Z" />
<glyph unicode="&#xe5;" horiz-adv-x="576" d="M472 95Q471 71 476 62T497 52Q507 52 519 58T545 75L570 34Q554 18 522 2T458 -14Q375 -14 384 87L401 271L394 272L372 191Q354 125 333 80T281 10T200 -14Q147 -14 113 13T61 89T44 201Q44 296 73 368T156 482T279
523Q314 523 344 515T393 498L463 521L485 511L472 95ZM216 58Q238 58 254 69T285 108T316 187T355 316L388 437Q369 447 342 453T289 459Q245 459 213 426T163 334T146 200Q146 126 162 92T216 58ZM300 582Q245 582 220 609T195 682Q195 709 208 733T247 773T310
788Q362 788 387 762T412 690Q412 644 382 613T300 582ZM303 631Q328 631 338 648T349 687Q349 709 339 724T305 739Q280 739 269 722T257 684Q257 663 267 647T303 631Z" />
<glyph unicode="&#xe6;" horiz-adv-x="776" d="M593 523Q662 523 695 488T729 394Q729 339 701 306T630 255T542 225L439 199Q442 166 455 133T494 79T561 57Q622 57 690 121L725 80Q703 53 672 32T607 -2T539 -14Q486 -14 449 8T391 68T362 155Q345 101 325 63T275
6T200 -14Q147 -14 113 13T61 89T44 201Q44 296 73 368T156 482T279 523Q314 523 343 515T391 498L449 524L472 515L462 469Q488 494 522 508T593 523ZM216 58Q238 58 254 69T286 109T318 188T357 316L390 437Q371 447 343 453T289 459Q245 459 213 426T163 334T146
200Q146 127 162 93T216 58ZM630 392Q630 421 617 442T572 464Q515 464 480 410T439 259L528 282Q581 296 605 319T630 392Z" />
<glyph unicode="&#xe7;" horiz-adv-x="492" d="M292 523Q336 523 371 508T426 464T447 393Q447 364 430 345T383 326Q361 326 344 338T318 370L339 395Q359 417 356 432T334 456T291 464Q245 464 213 437T163 358T146 228Q146 181 158 142T197 80T263 57Q300 57
334 77T399 133L436 95Q427 83 411 65T370 29T314 -1T244 -14Q179 -14 135 16T67 101T44 225Q44 311 73 378T159 484T292 523ZM275 13L254 -51Q280 -52 302 -59T339 -84T353 -131Q353 -175 320 -203T231 -231Q210 -231 187 -226T147 -213L163 -165Q172 -168 188
-172T220 -176Q242 -176 256 -166T271 -134Q271 -116 261 -108T235 -98T205 -99L196 -78L224 13H275Z" />
<glyph unicode="&#xe8;" horiz-adv-x="483" d="M288 523Q363 523 399 489T436 394Q436 342 410 310T342 258T250 225L146 199Q149 164 163 132T203 78T268 57Q301 57 331 72T397 121L432 80Q419 63 392 41T328 2T244 -14Q180 -14 135 16T67 101T44 225Q44 313
74 380T159 485T288 523ZM338 392Q338 422 325 443T279 464Q222 464 187 410T146 259L235 282Q288 296 313 320T338 392ZM361 607L335 580L196 677Q165 699 167 728Q167 747 183 761T234 775L361 607Z" />
<glyph unicode="&#xe9;" horiz-adv-x="483" d="M288 523Q363 523 399 489T436 394Q436 342 410 310T342 258T250 225L146 199Q149 164 163 132T203 78T268 57Q301 57 331 72T397 121L432 80Q419 63 392 41T328 2T244 -14Q180 -14 135 16T67 101T44 225Q44 313
74 380T159 485T288 523ZM338 392Q338 422 325 443T279 464Q222 464 187 410T146 259L235 282Q288 296 313 320T338 392ZM309 750Q321 766 331 773T355 780Q378 780 389 761T396 704L224 581L200 607L309 750Z" />
<glyph unicode="&#xea;" horiz-adv-x="483" d="M288 523Q363 523 399 489T436 394Q436 342 410 310T342 258T250 225L146 199Q149 164 163 132T203 78T268 57Q301 57 331 72T397 121L432 80Q419 63 392 41T328 2T244 -14Q180 -14 135 16T67 101T44 225Q44 313
74 380T159 485T288 523ZM338 392Q338 422 325 443T279 464Q222 464 187 410T146 259L235 282Q288 296 313 320T338 392ZM434 606L407 580L282 679L154 581L130 607L238 748Q251 765 261 772T285 780Q294 780 301 779T316 775L434 606Z" />
<glyph unicode="&#xeb;" horiz-adv-x="483" d="M288 523Q363 523 399 489T436 394Q436 342 410 310T342 258T250 225L146 199Q149 164 163 132T203 78T268 57Q301 57 331 72T397 121L432 80Q419 63 392 41T328 2T244 -14Q180 -14 135 16T67 101T44 225Q44 313
74 380T159 485T288 523ZM338 392Q338 422 325 443T279 464Q222 464 187 410T146 259L235 282Q288 296 313 320T338 392ZM117 682Q117 710 136 729T185 749Q216 749 232 732T249 687Q249 658 230 639T180 620Q151 620 134 637T117 682ZM317 682Q317 710 336 729T386
749Q416 749 432 732T449 687Q449 658 430 639T381 620Q351 620 334 637T317 682Z" />
<glyph unicode="&#xec;" horiz-adv-x="306" d="M118 415Q120 438 115 447T93 456Q68 456 32 440L16 488Q42 504 75 513T136 523Q223 523 214 410L191 95Q190 70 194 61T214 52Q226 52 239 58T273 82L297 41Q281 25 260 12T217 -7T173 -14Q85 -14 92 80L118 415ZM221
607L195 580L56 677Q25 699 27 728Q27 747 43 761T94 775L221 607Z" />
<glyph unicode="&#xed;" horiz-adv-x="306" d="M118 415Q120 438 115 447T93 456Q68 456 32 440L16 488Q42 504 75 513T136 523Q223 523 214 410L191 95Q190 70 194 61T214 52Q226 52 239 58T273 82L297 41Q281 25 260 12T217 -7T173 -14Q85 -14 92 80L118 415ZM169
750Q181 766 191 773T215 780Q238 780 249 761T256 704L84 581L60 607L169 750Z" />
<glyph unicode="&#xee;" horiz-adv-x="306" d="M118 415Q120 438 115 447T93 456Q68 456 32 440L16 488Q42 504 75 513T136 523Q223 523 214 410L191 95Q190 70 194 61T214 52Q226 52 239 58T273 82L297 41Q281 25 260 12T217 -7T173 -14Q85 -14 92 80L118 415ZM294
606L267 580L142 679L14 581L-10 607L98 748Q111 765 121 772T145 780Q154 780 161 779T176 775L294 606Z" />
<glyph unicode="&#xef;" horiz-adv-x="306" d="M118 415Q120 438 115 447T93 456Q68 456 32 440L16 488Q42 504 75 513T136 523Q223 523 214 410L191 95Q190 70 194 61T214 52Q226 52 239 58T273 82L297 41Q281 25 260 12T217 -7T173 -14Q85 -14 92 80L118 415ZM-23
682Q-23 710 -4 729T45 749Q76 749 92 732T109 687Q109 658 90 639T40 620Q11 620 -6 637T-23 682ZM177 682Q177 710 196 729T246 749Q276 749 292 732T309 687Q309 658 290 639T241 620Q211 620 194 637T177 682Z" />
<glyph unicode="&#xf0;" horiz-adv-x="536" d="M269 677Q246 695 216 708T150 729L162 776Q217 768 260 753T338 715L455 778L476 730L383 679Q431 634 453 575T483 453T490 332Q490 233 467 155T391 31T254 -14Q153 -14 99 54T44 237Q44 312 66 377T135 483T261
523Q301 523 333 506T384 457L388 459Q379 507 361 554T310 639L211 585L190 634L269 677ZM261 47Q312 47 339 78T376 161T387 274Q387 330 376 372T340 438T270 462Q220 462 194 430T159 345T149 231Q149 178 160 136T197 71T261 47Z" />
<glyph unicode="&#xf1;" horiz-adv-x="603" d="M589 34Q578 24 557 13T513 -6T468 -14Q383 -14 391 72L416 356Q420 405 412 423T381 441Q363 441 351 431T327 397T301 328L189 0H92L108 416Q109 437 103 446T82 455Q72 455 59 451T25 438L8 489Q19 495 39 503T82
517T126 523Q170 523 187 497T200 421L175 155L182 153L253 369Q279 448 313 485T405 523Q472 523 495 481T512 357L490 95Q488 72 492 62T513 52Q524 52 538 58T566 74L589 34ZM378 620Q356 620 336 625T289 644Q227 673 217 673Q205 673 196 666T171 635L137
655Q156 693 171 713T201 742T236 751Q248 751 265 746T323 723Q350 712 368 706T396 699Q408 699 417 706T442 736L476 716Q448 661 427 641T378 620Z" />
<glyph unicode="&#xf2;" horiz-adv-x="539" d="M254 -14Q153 -14 99 54T45 235Q45 291 58 343T98 435T172 499T283 523Q352 523 398 492T469 405T494 274Q494 198 470 133T393 27T254 -14ZM261 47Q312 47 339 79T378 163T389 275Q389 330 379 372T344 438T276
462Q237 462 213 443T174 392T155 318T150 232Q150 150 176 99T261 47ZM366 607L340 580L201 677Q170 699 172 728Q172 747 188 761T239 775L366 607Z" />
<glyph unicode="&#xf3;" horiz-adv-x="539" d="M254 -14Q153 -14 99 54T45 235Q45 291 58 343T98 435T172 499T283 523Q352 523 398 492T469 405T494 274Q494 198 470 133T393 27T254 -14ZM261 47Q312 47 339 79T378 163T389 275Q389 330 379 372T344 438T276
462Q237 462 213 443T174 392T155 318T150 232Q150 150 176 99T261 47ZM314 750Q326 766 336 773T360 780Q383 780 394 761T401 704L229 581L205 607L314 750Z" />
<glyph unicode="&#xf4;" horiz-adv-x="539" d="M254 -14Q153 -14 99 54T45 235Q45 291 58 343T98 435T172 499T283 523Q352 523 398 492T469 405T494 274Q494 198 470 133T393 27T254 -14ZM261 47Q312 47 339 79T378 163T389 275Q389 330 379 372T344 438T276
462Q237 462 213 443T174 392T155 318T150 232Q150 150 176 99T261 47ZM439 606L412 580L287 679L159 581L135 607L243 748Q256 765 266 772T290 780Q299 780 306 779T321 775L439 606Z" />
<glyph unicode="&#xf5;" horiz-adv-x="539" d="M254 -14Q153 -14 99 54T45 235Q45 291 58 343T98 435T172 499T283 523Q352 523 398 492T469 405T494 274Q494 198 470 133T393 27T254 -14ZM261 47Q312 47 339 79T378 163T389 275Q389 330 379 372T344 438T276
462Q237 462 213 443T174 392T155 318T150 232Q150 150 176 99T261 47ZM361 620Q339 620 319 625T272 644Q210 673 200 673Q188 673 179 666T154 635L120 655Q139 693 154 713T184 742T219 751Q231 751 248 746T306 723Q333 712 351 706T379 699Q391 699 400 706T425
736L459 716Q431 661 410 641T361 620Z" />
<glyph unicode="&#xf6;" horiz-adv-x="539" d="M254 -14Q153 -14 99 54T45 235Q45 291 58 343T98 435T172 499T283 523Q352 523 398 492T469 405T494 274Q494 198 470 133T393 27T254 -14ZM261 47Q312 47 339 79T378 163T389 275Q389 330 379 372T344 438T276
462Q237 462 213 443T174 392T155 318T150 232Q150 150 176 99T261 47ZM122 682Q122 710 141 729T190 749Q221 749 237 732T254 687Q254 658 235 639T185 620Q156 620 139 637T122 682ZM322 682Q322 710 341 729T391 749Q421 749 437 732T454 687Q454 658 435 639T386
620Q356 620 339 637T322 682Z" />
<glyph unicode="&#xf7;" horiz-adv-x="582" d="M77 272L80 342H513L510 272H77ZM231 463Q233 490 253 508T303 527Q332 527 351 509T369 464Q368 436 348 418T298 400Q269 400 250 417T231 463ZM284 84Q256 84 237 101T219 147Q219 175 240 193T289 212Q318 212
337 194T357 148Q356 120 335 102T284 84Z" />
<glyph unicode="&#xf8;" horiz-adv-x="539" d="M446 523H517L83 -14H11L446 523ZM254 -14Q153 -14 99 54T45 235Q45 291 58 343T98 435T172 499T283 523Q352 523 398 492T469 405T494 274Q494 198 470 133T393 27T254 -14ZM261 47Q312 47 339 79T378 163T389 275Q389
330 379 372T344 438T276 462Q237 462 213 443T174 392T155 318T150 232Q150 150 176 99T261 47Z" />
<glyph unicode="&#xf9;" horiz-adv-x="597" d="M15 476Q29 489 50 499T94 516T135 523Q220 523 212 436L187 154Q183 105 190 87T219 68Q235 68 246 77T269 111T297 183L406 509H502L487 93Q486 72 492 63T513 54Q526 54 540 59T570 71L588 21Q565 7 530 -3T470
-14Q428 -14 410 11T395 88L420 356L412 357L345 139Q320 57 285 22T193 -14Q133 -14 109 25T91 153L113 414Q115 438 111 447T90 457Q79 457 65 451T37 435L15 476ZM376 607L350 580L211 677Q180 699 182 728Q182 747 198 761T249 775L376 607Z" />
<glyph unicode="&#xfa;" horiz-adv-x="597" d="M15 476Q29 489 50 499T94 516T135 523Q220 523 212 436L187 154Q183 105 190 87T219 68Q235 68 246 77T269 111T297 183L406 509H502L487 93Q486 72 492 63T513 54Q526 54 540 59T570 71L588 21Q565 7 530 -3T470
-14Q428 -14 410 11T395 88L420 356L412 357L345 139Q320 57 285 22T193 -14Q133 -14 109 25T91 153L113 414Q115 438 111 447T90 457Q79 457 65 451T37 435L15 476ZM324 750Q336 766 346 773T370 780Q393 780 404 761T411 704L239 581L215 607L324 750Z" />
<glyph unicode="&#xfb;" horiz-adv-x="597" d="M15 476Q29 489 50 499T94 516T135 523Q220 523 212 436L187 154Q183 105 190 87T219 68Q235 68 246 77T269 111T297 183L406 509H502L487 93Q486 72 492 63T513 54Q526 54 540 59T570 71L588 21Q565 7 530 -3T470
-14Q428 -14 410 11T395 88L420 356L412 357L345 139Q320 57 285 22T193 -14Q133 -14 109 25T91 153L113 414Q115 438 111 447T90 457Q79 457 65 451T37 435L15 476ZM449 606L422 580L297 679L169 581L145 607L253 748Q266 765 276 772T300 780Q309 780 316 779T331
775L449 606Z" />
<glyph unicode="&#xfc;" horiz-adv-x="597" d="M15 476Q29 489 50 499T94 516T135 523Q220 523 212 436L187 154Q183 105 190 87T219 68Q235 68 246 77T269 111T297 183L406 509H502L487 93Q486 72 492 63T513 54Q526 54 540 59T570 71L588 21Q565 7 530 -3T470
-14Q428 -14 410 11T395 88L420 356L412 357L345 139Q320 57 285 22T193 -14Q133 -14 109 25T91 153L113 414Q115 438 111 447T90 457Q79 457 65 451T37 435L15 476ZM132 682Q132 710 151 729T200 749Q231 749 247 732T264 687Q264 658 245 639T195 620Q166 620
149 637T132 682ZM332 682Q332 710 351 729T401 749Q431 749 447 732T464 687Q464 658 445 639T396 620Q366 620 349 637T332 682Z" />
<glyph unicode="&#xfd;" horiz-adv-x="529" d="M300 -57Q279 -104 257 -143T201 -206T113 -229Q74 -229 48 -210T21 -158Q21 -128 39 -108T90 -84L105 -114Q119 -140 128 -148T152 -157Q175 -157 189 -138T224 -74L256 0H243Q211 0 191 14T153 59Q128 101 113
178T97 352Q97 369 97 390T98 428Q98 444 93 450T76 456Q66 456 48 451T16 439L-1 490Q16 499 50 511T119 523Q162 523 179 499T196 435Q196 418 195 400T194 360Q194 272 203 211T232 109Q243 85 252 78T275 70H288L399 338Q415 375 412 393T382 421L347 434Q341
474 360 498T417 523Q454 523 473 500T493 438Q493 417 487 390T465 324T424 226L300 -57ZM308 750Q320 766 330 773T354 780Q377 780 388 761T395 704L223 581L199 607L308 750Z" />
<glyph unicode="&#xfe;" horiz-adv-x="514" d="M88 -227L72 -213L90 61L112 696L22 717L28 767H189L205 756L193 425L166 190L174 188L211 326Q229 395 252 438T306 502T384 523Q460 523 497 466T534 309Q534 208 503 136T418 25T293 -14Q257 -14 226 -6T178 12L166
-163L260 -175L254 -225L88 -227ZM286 50Q333 50 365 83T414 175T432 308Q432 331 431 355T423 401T403 435T367 448Q345 448 330 439T299 404T267 326T226 188L192 72Q210 64 233 57T286 50Z" />
<glyph unicode="&#xff;" horiz-adv-x="529" d="M300 -57Q279 -104 257 -143T201 -206T113 -229Q74 -229 48 -210T21 -158Q21 -128 39 -108T90 -84L105 -114Q119 -140 128 -148T152 -157Q175 -157 189 -138T224 -74L256 0H243Q211 0 191 14T153 59Q128 101 113
178T97 352Q97 369 97 390T98 428Q98 444 93 450T76 456Q66 456 48 451T16 439L-1 490Q16 499 50 511T119 523Q162 523 179 499T196 435Q196 418 195 400T194 360Q194 272 203 211T232 109Q243 85 252 78T275 70H288L399 338Q415 375 412 393T382 421L347 434Q341
474 360 498T417 523Q454 523 473 500T493 438Q493 417 487 390T465 324T424 226L300 -57ZM116 682Q116 710 135 729T184 749Q215 749 231 732T248 687Q248 658 229 639T179 620Q150 620 133 637T116 682ZM316 682Q316 710 335 729T385 749Q415 749 431 732T448
687Q448 658 429 639T380 620Q350 620 333 637T316 682Z" />
<glyph unicode="&#x2013;" horiz-adv-x="500" d="M26 246L29 311H499L496 246H26Z" />
<glyph unicode="&#x2014;" horiz-adv-x="1000" d="M17 246L20 311H990L987 246H17Z" />
<glyph unicode="&#x2018;" horiz-adv-x="266" d="M164 504Q123 504 105 531T87 589Q87 634 117 681T220 774L249 735Q232 723 214 708T184 675T171 641Q171 620 194 614L231 604Q239 582 235 559T213 520T164 504Z" />
<glyph unicode="&#x2019;" horiz-adv-x="266" d="M98 494L69 533Q86 546 104 561T134 594T147 627Q147 635 143 643T125 655L88 665Q80 686 84 709T105 748T154 764Q196 764 213 738T231 679Q231 634 201 588T98 494Z" />
<glyph unicode="&#x201a;" horiz-adv-x="279" d="M89 -149L60 -110Q77 -98 94 -83T125 -50T138 -16Q138 5 115 11L78 21Q70 43 74 66T95 105T144 121Q186 121 203 95T221 36Q221 -9 191 -56T89 -149Z" />
<glyph unicode="&#x201c;" horiz-adv-x="460" d="M164 504Q123 504 105 531T87 589Q87 634 117 681T220 774L249 735Q232 723 214 708T184 675T171 641Q171 620 194 614L231 604Q239 582 235 559T213 520T164 504ZM358 504Q317 504 299 531T281 589Q281 634 311
681T414 774L443 735Q426 723 408 708T378 675T365 641Q365 620 388 614L425 604Q433 582 429 559T407 520T358 504Z" />
<glyph unicode="&#x201d;" horiz-adv-x="460" d="M98 494L69 533Q86 546 104 561T134 594T147 627Q147 635 143 643T125 655L88 665Q80 686 84 709T105 748T154 764Q196 764 213 738T231 679Q231 634 201 588T98 494ZM292 494L263 533Q280 546 298 561T328 594T341
627Q341 635 337 643T319 655L282 665Q274 686 278 709T299 748T348 764Q390 764 407 738T425 679Q425 634 395 588T292 494Z" />
<glyph unicode="&#x201e;" horiz-adv-x="473" d="M89 -149L60 -110Q77 -98 94 -83T125 -50T138 -16Q138 5 115 11L78 21Q70 43 74 66T95 105T144 121Q186 121 203 95T221 36Q221 -9 191 -56T89 -149ZM283 -149L254 -110Q271 -98 288 -83T319 -50T332 -16Q332 5
309 11L272 21Q264 43 268 66T289 105T338 121Q380 121 397 95T415 36Q415 -9 385 -56T283 -149Z" />
<glyph unicode="&#x2022;" horiz-adv-x="371" d="M73 305Q73 358 104 388T185 418Q236 418 268 389T301 307Q301 255 269 226T185 196Q136 196 105 225T73 305Z" />
<glyph unicode="&#x2039;" horiz-adv-x="308" d="M275 445Q246 396 215 354T144 269Q166 245 186 218T226 159T269 83L233 56Q181 118 135 162T41 241L51 302Q103 339 153 383T240 472L275 445Z" />
<glyph unicode="&#x203a;" horiz-adv-x="308" d="M50 82Q89 143 121 186T186 264Q162 293 143 319T106 375T70 443L107 470Q195 358 291 286L278 225Q229 192 177 146T84 56L50 82Z" />
</font>
</defs>
</svg>
