<?xml version="1.0" standalone="no"?>
<!DOCTYPE svg PUBLIC "-//W3C//DTD SVG 1.1//EN" "http://www.w3.org/Graphics/SVG/1.1/DTD/svg11.dtd">
<svg xmlns="http://www.w3.org/2000/svg">
<defs >
<font id="Literata" horiz-adv-x="634" ><font-face
    font-family="Literata Medium"
    units-per-em="1000"
    panose-1="0 0 0 0 0 0 0 0 0 0"
    ascent="1177"
    descent="-308"
    alphabetic="0" />
<glyph unicode=" " horiz-adv-x="195" />
<glyph unicode="!" horiz-adv-x="327" d="M132 192V255Q132 314 126 371T113 479T99 573T93 646Q93 678 113 696T167 714Q199 714 217 697T236 648Q236 619 230 578T214 485T199 375T193 254V192H132ZM163 -14Q131 -14 110 5T89 57Q89 91 110 110T163 130Q196
130 216 111T237 58Q237 25 217 6T163 -14Z" />
<glyph unicode="&quot;" horiz-adv-x="391" d="M252 547L226 704Q225 710 224 716T223 727Q223 749 237 766T279 783Q294 783 309 773T324 743Q324 739 324 733T321 718L289 547H252ZM100 547L73 704Q72 710 72 716T71 727Q71 749 85 766T126 783Q141 783 156
773T171 743Q171 739 171 733T168 718L136 547H100Z" />
<glyph unicode="#" horiz-adv-x="676" d="M144 -2L165 138H42L53 193H175L201 366H76L86 421H210L230 552H292L272 421H446L465 552H528L508 421H634L625 366H500L473 193H605L595 138H465L443 -2H381L403 138H228L206 -2H144ZM237 193H411L438 366H262L237 193Z" />
<glyph unicode="$" horiz-adv-x="596" d="M279 -81V790H333V-81H279ZM315 -14Q266 -14 217 3T136 50L121 -6H71L52 207L114 213Q142 138 190 97T308 56Q351 56 379 70T420 109T434 166Q434 219 398 250T280 307Q208 330 163 357T97 423T75 517Q75 558 90 594T133
657T201 699T294 714Q339 714 378 699T443 663L456 714H506L528 509L468 500Q444 579 402 615T299 652Q247 652 215 624T183 547Q183 513 199 490T249 449T337 411Q389 393 428 373T492 330T530 275T543 201Q543 137 513 89T432 13T315 -14Z" />
<glyph unicode="%" horiz-adv-x="848" d="M199 -14L562 597H643L281 -14H199ZM203 274Q128 274 86 317T44 428Q44 490 67 527T129 580T208 597Q250 597 286 581T343 531T365 445Q365 389 343 351T285 294T203 274ZM207 332Q239 332 256 356T274 435Q274 487 255
513T201 540Q171 540 152 517T132 440Q132 390 152 361T207 332ZM643 -14Q568 -14 526 29T484 140Q484 202 507 239T569 292T648 309Q690 309 725 293T782 243T804 157Q804 101 782 63T724 6T643 -14ZM647 44Q679 44 696 68T714 147Q714 199 695 225T641 252Q611
252 592 229T572 152Q572 102 592 73T647 44Z" />
<glyph unicode="&amp;" horiz-adv-x="814" d="M285 -14Q238 -14 196 -2T121 35T70 96T52 181Q52 234 73 272T129 338T206 382Q177 413 151 453T124 544Q124 600 149 637T217 694T313 714Q383 714 426 674T470 571Q470 511 435 467T341 395L488 241Q506 318 529
366T578 441T632 478T686 489Q718 489 742 470T766 418Q766 393 752 374T715 355Q694 355 682 368T655 419Q636 414 614 392T571 322T535 194Q576 155 602 133T646 103T681 94Q693 94 710 101T757 131L781 96Q748 49 718 27T650 5Q616 5 580 25T496 93Q479 65 451
41T383 1T285 -14ZM312 51Q361 51 396 73T450 134L241 345Q211 327 188 293T165 200Q165 127 206 89T312 51ZM306 430Q359 461 378 499T398 571Q398 617 373 637T310 658Q285 658 265 648T233 619T221 571Q221 531 245 497T306 430Z" />
<glyph unicode="&apos;" horiz-adv-x="238" d="M100 547L73 704Q72 710 72 716T71 727Q71 749 85 766T126 783Q141 783 156 773T171 743Q171 739 171 733T168 718L136 547H100Z" />
<glyph unicode="(" horiz-adv-x="337" d="M265 -206Q214 -151 169 -73T96 103T68 309Q68 392 85 468T132 610T196 729T269 820L311 796Q270 730 240 651T194 486T177 318Q177 227 193 140T238 -28T307 -182L265 -206Z" />
<glyph unicode=")" horiz-adv-x="337" d="M68 -206L26 -182Q67 -117 96 -38T143 127T160 296Q160 388 144 475T99 642T30 796L72 820Q124 765 169 687T241 511T269 304Q269 221 252 146T205 4T141 -115T68 -206Z" />
<glyph unicode="*" horiz-adv-x="451" d="M219 406Q197 406 189 421T186 457L208 568L129 498Q118 488 104 485T77 486T59 507Q49 528 59 540T86 557L192 596L96 631Q74 638 64 652T63 688Q70 710 89 711T124 699L209 623L189 728Q185 752 196 768T231 784Q252
784 260 771T264 736L241 622L321 692Q335 704 349 707T376 704T394 681Q402 663 393 651T364 632L256 595L354 558Q373 552 384 537T386 500Q379 477 361 476T325 490L240 567L260 466Q264 444 255 425T219 406Z" />
<glyph unicode="+" horiz-adv-x="582" d="M249 81V272H74V344H249V524H327V344H508V272H327V81H249Z" />
<glyph unicode="," horiz-adv-x="326" d="M114 -170L84 -130Q126 -98 146 -67T171 -3H149Q116 -3 100 13T83 57Q83 90 104 111T160 133Q205 133 226 104T247 35Q247 3 233 -35T190 -108T114 -170Z" />
<glyph unicode="-" horiz-adv-x="355" d="M41 243V329H316V243H41Z" />
<glyph unicode="." horiz-adv-x="325" d="M163 -18Q129 -18 107 2T85 59Q85 95 107 116T163 137Q199 137 221 117T243 60Q243 24 221 3T163 -18Z" />
<glyph unicode="/" horiz-adv-x="441" d="M17 -110L348 802H422L93 -110H17Z" />
<glyph unicode="0" horiz-adv-x="581" d="M289 -13Q204 -13 147 33T60 159T31 340Q31 444 54 515T115 631T200 694T298 714Q367 714 424 676T515 561T550 363Q550 240 516 157T422 30T289 -13ZM298 54Q364 54 399 124T434 348Q434 503 397 576T288 649Q246 649
214 621T165 530T147 356Q147 215 185 135T298 54Z" />
<glyph unicode="1" horiz-adv-x="407" d="M34 0V51L124 66Q144 70 149 81T155 113V564Q155 592 149 603T114 619L30 626L36 676L253 713L267 700V110Q267 88 272 79T299 66L386 51V0H34Z" />
<glyph unicode="2" horiz-adv-x="509" d="M35 0L27 69Q104 150 159 210T249 314T305 393T334 458T342 519Q342 575 313 609T228 644Q191 644 165 633T128 606Q143 584 149 570T156 548Q156 529 139 512T93 494Q55 494 39 517T22 567Q22 603 50 637T129 692T243
714Q307 714 355 691T431 623T459 518Q459 479 444 439T393 351T296 239T143 93H293Q323 93 341 96T371 109T393 142T417 200H476L457 0H35Z" />
<glyph unicode="3" horiz-adv-x="541" d="M251 -13Q198 -13 158 0T91 35T47 78T20 119L71 160Q88 138 111 118T167 85T242 72Q287 72 316 89T359 136T374 199Q374 268 329 299T196 330L203 388Q283 396 321 438T359 536Q359 584 331 614T249 645Q218 645 191 634T152
605Q167 583 173 569T180 546Q180 529 163 512T117 494Q80 494 63 516T46 566Q46 602 72 636T147 692T262 714Q324 714 370 694T442 635T468 540Q468 480 429 436T330 371V368Q375 359 411 339T470 284T492 195Q492 131 459 84T372 12T251 -13Z" />
<glyph unicode="4" horiz-adv-x="559" d="M199 0V47L289 62Q310 66 316 76T322 109V169H19L9 223L323 695L418 710L432 699V242H539V169H432V106Q432 83 438 74T466 61L522 51V0H199ZM99 242H322V566L321 573L99 242Z" />
<glyph unicode="5" horiz-adv-x="517" d="M240 -14Q172 -14 113 16T16 117L67 159Q106 111 147 91T236 71Q298 71 333 112T369 228Q369 289 335 327T237 366Q201 366 170 356T106 327L69 365L103 700H461L460 670L437 598H165L145 410Q174 427 208 436T278 445Q342
445 389 419T461 346T486 238Q486 156 455 100T369 15T240 -14Z" />
<glyph unicode="6" horiz-adv-x="544" d="M272 -13Q184 -13 131 27T54 137T31 291Q31 370 47 445T101 581T197 678T342 714Q370 714 400 707T457 686T499 649T516 597Q516 569 498 548T448 527Q416 527 399 542T382 573Q382 581 387 594T405 630Q395 639 376 643T332
647Q284 647 251 623T196 558T163 470T149 377Q169 407 210 430T308 454Q367 454 412 428T484 354T510 235Q510 153 480 98T396 15T272 -13ZM276 47Q332 47 365 87T399 224Q399 308 366 344T278 381Q246 381 216 366T166 321T146 240Q146 185 157 142T197 73T276
47Z" />
<glyph unicode="7" horiz-adv-x="511" d="M174 -12L159 0Q159 42 166 105T198 249T272 419T404 606H197Q157 606 136 599T102 569T74 502H15L34 700H492L501 634Q441 554 400 480T334 331T298 175T287 1L174 -12Z" />
<glyph unicode="8" horiz-adv-x="557" d="M269 -13Q200 -13 145 7T58 67T25 172Q25 207 39 243T88 311T185 364Q111 402 83 441T55 536Q55 578 78 619T151 687T276 714Q384 714 439 671T495 562Q495 499 461 458T376 391Q461 352 493 303T526 195Q526 127 490
81T395 11T269 -13ZM280 52Q341 52 376 83T411 176Q411 238 367 272T239 334Q185 306 160 266T135 181Q135 120 174 86T280 52ZM315 415Q350 438 371 473T392 548Q392 583 376 606T332 641T273 653Q226 653 192 629T158 557Q158 529 172 507T221 462T315 415Z"
/>
<glyph unicode="9" horiz-adv-x="530" d="M229 -14Q174 -14 119 7T26 77L67 124Q101 94 139 81T225 68Q279 68 312 100T362 190T383 318Q358 285 321 265T232 244Q170 244 123 270T48 344T21 460Q21 546 53 602T139 687T263 715Q351 715 403 674T477 565T499 413Q499
197 435 92T229 -14ZM253 322Q285 322 315 336T365 384T385 480Q385 525 373 565T334 630T259 655Q200 655 167 613T134 478Q134 392 166 357T253 322Z" />
<glyph unicode=":" horiz-adv-x="328" d="M163 368Q129 368 107 388T85 445Q85 481 107 502T163 523Q199 523 221 503T243 446Q243 410 221 389T163 368ZM163 -18Q129 -18 107 2T85 59Q85 95 107 116T163 137Q199 137 221 117T243 60Q243 24 221 3T163 -18Z" />
<glyph unicode=";" horiz-adv-x="326" d="M113 -170L82 -130Q124 -98 144 -67T169 -3H147Q115 -3 98 13T81 57Q81 90 102 111T158 133Q203 133 224 104T245 35Q245 3 231 -35T188 -108T113 -170ZM158 368Q124 368 102 388T80 445Q80 481 102 502T158 523Q194 523
216 503T238 446Q238 410 216 389T158 368Z" />
<glyph unicode="&lt;" horiz-adv-x="582" d="M450 39L69 264V312L450 538L483 478L157 290L483 102L450 39Z" />
<glyph unicode="=" horiz-adv-x="582" d="M75 359V430H507V359H75ZM75 179V250H507V179H75Z" />
<glyph unicode="&gt;" horiz-adv-x="582" d="M132 39L99 102L425 290L99 478L132 538L513 312V264L132 39Z" />
<glyph unicode="?" horiz-adv-x="535" d="M212 192V318Q212 341 218 359T240 396T280 440Q321 481 336 506T352 561Q352 605 324 629T248 654Q216 654 193 645T154 619Q166 603 175 587T185 559Q185 542 168 525T123 508Q90 508 76 526T61 570Q61 609 88 642T162
694T263 714Q353 714 405 670T458 551Q458 516 445 486T408 428T353 369Q318 335 301 315T277 281T271 254V192H212ZM243 -14Q210 -14 190 5T169 57Q169 91 189 110T243 130Q276 130 296 111T316 58Q316 25 296 6T243 -14Z" />
<glyph unicode="@" horiz-adv-x="850" d="M411 -187Q341 -187 277 -166T161 -100T80 14T50 180Q50 292 96 380T230 520T440 572Q549 572 629 536T755 427T800 244Q800 156 772 99T697 15T597 -13Q565 -13 549 -3T526 28T521 81L526 199H522L503 134Q488 83 467
51T420 3T363 -13Q313 -13 284 9T241 67T228 147Q228 236 256 291T329 372T425 398Q455 398 482 392T530 375L582 398L601 389L591 98Q590 68 595 57T623 45Q665 45 697 95T729 238Q729 365 659 439T440 513Q352 513 281 475T168 364T126 186Q126 97 152 37T221
-59T315 -109T413 -124Q484 -124 533 -105T623 -53L656 -95Q563 -187 411 -187ZM375 53Q406 53 432 92T484 217L518 330Q502 339 479 343T436 347Q393 347 367 319T328 245T315 152Q315 107 328 80T375 53Z" />
<glyph unicode="A" horiz-adv-x="736" d="M14 0V51L62 59Q80 63 88 73T107 113L318 700H429L638 112Q647 86 654 76T681 60L722 53V0H444V51L499 58Q519 61 523 72T518 108L478 227H222L183 112Q174 87 179 75T206 58L260 50V0H14ZM242 287H459L355 600H351L242 287Z" />
<glyph unicode="B" horiz-adv-x="663" d="M59 0V51L115 60Q135 64 140 74T146 111V593Q146 618 140 627T113 640L59 649V700H332Q422 700 477 681T559 624T585 532Q585 496 568 463T519 407T447 373V368Q532 361 578 319T625 202Q625 158 608 121T556 57T465 15T334
0H59ZM328 59Q389 59 428 76T486 126T505 204Q505 271 459 302T328 334Q305 334 289 333T259 330V64Q270 62 290 61T328 59ZM310 389Q386 389 425 425T465 527Q465 566 450 591T402 629T311 642H259V391Q269 390 282 390T310 389Z" />
<glyph unicode="C" horiz-adv-x="704" d="M386 -14Q283 -14 207 30T90 156T48 348Q48 458 88 540T201 668T369 714Q426 714 467 697T537 652L547 716H598L637 482L578 469Q549 559 502 602T375 645Q307 645 261 611T192 511T168 351Q168 263 197 198T279 98T399
62Q444 62 479 74T544 112T599 172L649 134Q623 92 584 59T495 6T386 -14Z" />
<glyph unicode="D" horiz-adv-x="766" d="M59 0V51L117 61Q135 64 140 74T146 112V592Q146 617 141 626T115 639L59 649V700H354Q470 700 551 664T675 555T718 374Q718 288 693 219T618 101T493 26T320 0H59ZM328 59Q401 59 452 79T536 139T583 235T598 367Q598
454 569 515T482 609T335 642H259V64Q269 63 289 61T328 59Z" />
<glyph unicode="E" horiz-adv-x="638" d="M59 0V51L114 60Q133 63 139 73T145 111V593Q145 619 139 628T112 640L59 649V700H530L568 536L512 519Q493 570 475 596T429 632T353 642H257V388H335Q371 388 387 392T411 414T428 470L477 477V248L428 239Q422 278
415 296T390 319T339 324H257V58H383Q432 58 459 67T502 104T532 185H591L567 0H59Z" />
<glyph unicode="F" horiz-adv-x="613" d="M59 0V51L114 60Q134 63 139 74T145 111V593Q145 618 139 627T112 640L59 649V700H538L575 524L518 505Q497 565 477 594T429 632T352 642H257V368H334Q371 368 388 372T412 393T427 450L475 456V208L427 199Q420 249
413 271T388 299T336 305H257V109Q257 82 264 72T294 59L363 51V0H59Z" />
<glyph unicode="G" horiz-adv-x="752" d="M374 -14Q297 -14 236 12T134 86T70 198T48 338Q48 452 87 536T199 667T369 714Q425 714 469 697T539 652L549 715H602L648 482L588 469Q558 559 508 602T379 645Q324 645 285 624T220 564T181 471T168 349Q168 258 195
193T272 92T384 57Q435 57 473 74T534 118V228Q534 253 528 262T501 276L444 285V336H719V285L669 276Q650 272 645 261T639 224V-3H588L564 43Q527 16 479 1T374 -14Z" />
<glyph unicode="H" horiz-adv-x="838" d="M59 0V51L114 60Q135 64 140 73T146 111V591Q146 619 140 627T112 640L59 649V700H345V649L289 640Q270 636 265 626T259 589V393H580V592Q580 618 574 627T547 640L493 649V700H779V649L725 640Q704 637 698 627T692
589V109Q692 82 698 73T726 60L779 51V0H493V51L549 60Q568 64 574 73T580 110V326H259V107Q259 82 265 73T291 60L345 51V0H59Z" />
<glyph unicode="I" horiz-adv-x="413" d="M59 0V51L118 60Q139 64 144 73T150 111V591Q150 619 144 627T116 640L59 649V700H354V649L293 640Q274 636 269 626T263 589V107Q263 82 269 73T295 60L354 51V0H59Z" />
<glyph unicode="J" horiz-adv-x="552" d="M217 -14Q165 -14 124 1T59 45T35 111Q35 146 56 170T111 195Q143 195 159 182T176 148Q176 135 170 121T145 75Q155 66 176 59T221 51Q257 51 279 67T311 116T321 197V591Q321 617 315 626T288 638L220 648V700H521V649L462
639Q443 636 438 626T433 589V216Q433 147 409 95T336 15T217 -14Z" />
<glyph unicode="K" horiz-adv-x="760" d="M642 -14Q592 -14 554 7T481 84L328 329L263 262V107Q263 83 268 74T293 60L353 51V0H59V51L119 60Q139 64 144 74T150 110V593Q150 618 145 627T118 640L59 649V700H354V649L292 639Q273 637 268 626T263 589V345L506
591Q523 609 519 623T494 640L446 648L456 700H697V647L660 639Q643 635 631 627T593 593L405 403L577 141Q599 108 616 90T652 66T695 59Q703 59 713 61T739 68L750 27Q732 9 704 -2T642 -14Z" />
<glyph unicode="L" horiz-adv-x="635" d="M59 0V51L115 60Q135 64 140 73T146 111V593Q146 618 141 627T114 640L59 649V700H357V649L291 640Q271 636 265 628T259 593V59H365Q410 59 437 72T484 119T523 217H583L557 0H59Z" />
<glyph unicode="M" horiz-adv-x="992" d="M57 0V51L113 60Q134 64 138 75T144 109L174 592Q175 617 169 626T142 639L86 649V700H330L493 214L497 222L669 700H908V649L847 639Q828 637 823 626T817 588L847 107Q847 83 853 74T879 60L937 51V0H643V51L704 61Q723
64 728 74T734 112L706 599L705 604L524 113H421L249 603L248 597L220 108Q219 83 224 74T251 60L307 51V0H57Z" />
<glyph unicode="N" horiz-adv-x="834" d="M59 0V51L116 60Q135 64 140 74T146 111V593Q146 618 141 627T114 640L59 649V700H285L613 140L614 146V593Q614 618 608 627T581 640L527 649V700H775V649L719 640Q699 636 694 626T688 589V0H572L222 588L221 582V107Q221
83 227 74T253 60L308 51V0H59Z" />
<glyph unicode="O" horiz-adv-x="762" d="M379 -14Q277 -14 203 30T88 154T48 336Q48 426 73 496T143 614T250 688T389 714Q485 714 558 672T672 553T713 368Q713 256 673 170T557 35T379 -14ZM391 58Q489 58 540 131T592 349Q592 441 567 507T493 609T375 645Q276
645 222 571T168 357Q168 266 194 199T270 95T391 58Z" />
<glyph unicode="P" horiz-adv-x="613" d="M59 0V51L116 60Q136 63 141 74T147 111V593Q147 618 141 627T114 640L59 649V700H319Q405 700 465 679T557 612T588 499Q588 445 569 403T516 333T437 289T340 274Q313 274 290 276T259 279V109Q259 82 266 72T296 59L366
51V0H59ZM312 333Q390 333 429 376T469 498Q469 571 431 606T309 642H259V337Q267 335 281 334T312 333Z" />
<glyph unicode="Q" horiz-adv-x="770" d="M693 -191Q648 -191 611 -172T540 -110T471 -2Q449 -8 426 -11T379 -14Q277 -14 203 30T88 154T48 336Q48 426 73 496T143 614T250 688T389 714Q485 714 558 672T672 553T713 368Q713 258 675 173T562 38Q596 -9 622 -37T672
-78T725 -91Q762 -91 792 -80T860 -42L883 -76Q834 -136 791 -163T693 -191ZM391 58Q406 58 417 59T437 62Q402 128 372 158T303 189Q254 189 215 155Q243 107 287 83T391 58ZM518 104Q554 139 573 201T592 349Q592 441 567 507T493 609T375 645Q276 645 222 571T168
357Q168 313 174 274T192 203Q223 230 252 242T317 254Q370 254 415 219T518 104Z" />
<glyph unicode="R" horiz-adv-x="724" d="M597 -14Q557 -14 531 -2T486 39T446 114L398 229Q383 266 370 285T340 311T295 318Q275 318 259 315V109Q259 83 266 73T296 59L362 51V0H59V51L116 60Q136 64 141 74T147 111V593Q147 618 141 627T114 640L59 649V700H330Q412
700 470 681T559 623T590 523Q590 488 576 458T537 403T480 363T414 340V337Q454 327 477 305T517 244L552 162Q566 130 578 106T605 70T646 57Q655 57 666 59T692 65L703 27Q681 7 654 -3T597 -14ZM307 371Q361 371 397 388T451 438T470 514Q470 581 431 611T311
642H259V373Q273 372 284 372T307 371Z" />
<glyph unicode="S" horiz-adv-x="596" d="M315 -14Q266 -14 217 3T136 50L121 -6H71L52 207L114 213Q142 138 190 97T308 56Q351 56 379 70T420 109T434 166Q434 219 398 250T280 307Q208 330 163 357T97 423T75 517Q75 558 90 594T133 657T201 699T294 714Q339
714 378 699T443 663L456 714H506L528 509L468 500Q444 579 402 615T299 652Q247 652 215 624T183 547Q183 513 199 490T249 449T337 411Q389 393 428 373T492 330T530 275T543 201Q543 137 513 89T432 13T315 -14Z" />
<glyph unicode="T" horiz-adv-x="736" d="M204 0V51L279 63Q299 66 305 77T312 113V641H265Q228 641 203 635T161 613T129 565T98 485L38 499L77 700H660L698 499L637 485Q616 551 598 584T552 629T476 641H424V109Q424 85 430 76T458 63L531 51V0H204Z" />
<glyph unicode="U" horiz-adv-x="805" d="M403 -14Q310 -14 251 17T163 111T134 264V593Q134 618 128 627T101 640L46 649V700H334V649L276 640Q257 636 252 625T246 589V273Q246 201 262 154T317 85T419 62Q484 62 523 87T581 160T599 277V593Q599 618 593 627T566
640L512 649V700H763V649L707 640Q687 636 682 626T676 589V286Q676 135 607 61T403 -14Z" />
<glyph unicode="V" horiz-adv-x="738" d="M308 0L103 589Q93 617 86 625T58 639L18 647V700H297V650L242 643Q222 640 218 630T223 593L383 99H387L549 587Q558 613 553 624T527 640L478 651V700H720V650L671 642Q654 638 646 629T626 588L426 0H308Z" />
<glyph unicode="W" horiz-adv-x="1094" d="M252 0L103 589Q96 616 88 625T58 639L18 646V700H295V649L244 643Q224 640 220 630T221 593L332 100H337L494 700H614L787 103H791L906 587Q912 614 907 625T882 640L833 650V700H1075V649L1028 642Q1009 639 999 628T981
588L832 0H703L537 581H534L384 0H252Z" />
<glyph unicode="X" horiz-adv-x="719" d="M16 0V52L53 60Q73 64 84 72T118 103L297 338L110 593Q90 618 79 626T48 638L14 646L24 700H286V648L241 640Q223 637 222 627T235 600L365 421L488 596Q503 615 503 623T480 638L438 649L448 700H677V647L639 640Q620
636 607 628T576 595L409 367L599 107Q618 84 633 75T668 61L705 55V0H418V53L466 59Q485 61 486 72T473 102L340 282L205 100Q193 83 194 75T213 61L261 51V0H16Z" />
<glyph unicode="Y" horiz-adv-x="710" d="M203 0V51L269 60Q289 64 294 74T300 111V285L114 589Q99 615 87 625T54 640L18 647V700H307V650L255 643Q233 640 228 628T236 593L375 359H380L513 588Q527 610 523 622T496 639L448 651V700H692V650L648 642Q632 639
621 628T591 587L412 287V107Q412 83 418 74T444 60L510 51V0H203Z" />
<glyph unicode="Z" horiz-adv-x="658" d="M55 0V53L457 643H255Q218 643 196 631T158 588T125 505L64 500L76 700H590V645L189 59H391Q431 59 456 71T501 115T542 207H600L581 0H55Z" />
<glyph unicode="[" horiz-adv-x="337" d="M102 -212V812H296L300 758L224 752Q207 751 202 744T197 709V-109Q197 -136 202 -143T224 -152L300 -158L296 -212H102Z" />
<glyph unicode="\" horiz-adv-x="441" d="M349 -110L17 802H92L424 -110H349Z" />
<glyph unicode="]" horiz-adv-x="337" d="M41 -212L37 -158L113 -152Q130 -150 135 -143T140 -109V709Q140 736 135 743T113 752L37 758L41 812H235V-212H41Z" />
<glyph unicode="^" horiz-adv-x="582" d="M100 339L43 373L266 712H316L539 373L482 339L291 624L100 339Z" />
<glyph unicode="_" horiz-adv-x="500" d="M15 -105V-38H485V-105H15Z" />
<glyph unicode="`" horiz-adv-x="500" d="M305 580L166 670Q150 681 141 694T131 724Q131 743 145 761T184 779Q195 779 203 772T223 750L331 608L305 580Z" />
<glyph unicode="a" horiz-adv-x="544" d="M191 -14Q126 -14 87 23T48 123Q48 181 78 214T171 264T333 285V355Q333 414 309 440T234 467Q208 467 183 459T145 438Q170 395 170 382Q170 362 154 349T110 335Q82 335 67 349T51 390Q51 426 78 456T151 504T249 523Q346
523 392 478T439 338V104Q439 59 483 59Q493 59 504 61T528 67L539 26Q520 9 493 -2T441 -14Q399 -14 375 8T345 72Q290 -14 191 -14ZM235 61Q278 61 305 89T333 160V230Q246 230 202 208T158 135Q158 100 178 81T235 61Z" />
<glyph unicode="b" horiz-adv-x="614" d="M135 -14L102 -5V641Q102 675 95 685T60 699L16 707L22 761L197 766L208 755V436L209 431Q241 479 281 501T375 523Q467 523 518 457T569 272Q569 136 508 61T335 -14Q247 -14 183 32L135 -14ZM322 55Q386 55 420 108T455
260Q455 352 426 398T337 444Q277 444 243 407T208 304V97Q231 77 260 66T322 55Z" />
<glyph unicode="c" horiz-adv-x="506" d="M281 -14Q208 -14 155 18T72 109T43 245Q43 329 74 391T162 488T294 523Q351 523 392 505T455 456T477 390Q477 359 459 341T409 322Q392 322 378 327T355 343T346 372Q346 383 352 398T374 439Q357 452 338 457T291 462Q249
462 219 437T173 368T157 266Q157 173 198 122T309 70Q349 70 382 84T442 124L478 85Q445 42 394 14T281 -14Z" />
<glyph unicode="d" horiz-adv-x="618" d="M250 -14Q151 -14 97 53T43 239Q43 327 72 390T156 488T287 523Q320 523 352 514T407 491V642Q407 674 400 685T365 700L321 707L328 761L502 766L513 755V103Q513 79 519 71T546 58L595 49V-2L431 -8L416 71H413Q383
30 343 8T250 -14ZM283 64Q319 64 347 81T391 131T407 210V414Q383 432 353 441T291 451Q223 451 189 400T155 249Q155 160 188 112T283 64Z" />
<glyph unicode="e" horiz-adv-x="521" d="M283 -14Q207 -14 154 19T72 110T43 245Q43 330 74 392T161 489T291 523Q376 523 427 474T479 342Q479 321 476 295T466 243H157Q159 160 199 114T309 68Q350 68 385 84T449 127L486 89Q465 60 434 37T365 0T283 -14ZM157
304H371Q373 314 373 326T374 352Q374 409 350 436T280 464Q224 464 194 422T157 304Z" />
<glyph unicode="f" horiz-adv-x="394" d="M40 0V51L93 60Q113 63 118 73T124 111V442H44V493L124 506V545Q124 619 145 672T209 753T315 782Q362 782 395 769T445 732T462 680Q462 652 445 633T400 613Q384 613 371 617T349 631T341 656Q341 667 346 679T366 715Q356
720 342 723T313 727Q268 727 249 697T230 604V509H375V442H230V107Q230 83 236 74T263 61L345 51V0H40Z" />
<glyph unicode="g" horiz-adv-x="572" d="M255 -229Q173 -229 122 -215T46 -172T22 -105Q22 -65 46 -38T116 10V14Q88 23 72 45T56 92Q56 118 69 141T120 202V205Q84 224 65 257T45 341Q45 397 72 437T147 500T259 523Q293 523 328 515T391 491Q403 518 418 539T454
572T499 584Q528 584 548 569T568 528Q568 505 551 487T510 468Q495 468 486 475T468 497L459 518Q442 493 429 459Q448 437 458 409T469 347Q469 268 412 220T257 171Q235 171 212 174T175 182Q160 165 153 153T146 127Q146 104 163 96T217 87H349Q409 87 449
74T509 32T530 -46Q530 -86 514 -120T463 -178T376 -216T255 -229ZM265 -162Q341 -162 380 -136T420 -69Q420 -39 399 -25T332 -11H170Q149 -27 138 -46T127 -89Q127 -127 159 -144T265 -162ZM259 228Q308 228 334 258T361 343Q361 402 333 434T254 467Q220 467
198 453T165 412T154 347Q154 293 182 261T259 228Z" />
<glyph unicode="h" horiz-adv-x="663" d="M48 0V50L95 59Q113 63 117 73T122 107V643Q122 676 115 686T81 700L36 707L43 761L218 766L229 755V439V432Q244 457 268 477T325 510T394 523Q450 523 486 502T539 443T557 352V99Q557 78 562 70T588 58L635 50V0H379V49L421
57Q440 61 445 69T451 99V318Q451 362 443 389T414 430T357 443Q299 443 264 407T229 306V103Q229 81 233 73T254 60L304 49V0H48Z" />
<glyph unicode="i" horiz-adv-x="338" d="M38 0V52L94 61Q114 64 119 74T124 110V382Q124 418 118 429T88 444L41 451L48 504L219 513L231 508V107Q231 83 237 74T262 61L315 51V0H38ZM162 618Q129 618 109 638T88 690Q88 721 108 741T162 762Q196 762 217 742T238
690Q238 659 217 639T162 618Z" />
<glyph unicode="j" horiz-adv-x="310" d="M62 -229L28 -185Q76 -148 95 -98T115 31V382Q115 418 109 429T80 444L32 451L39 504L210 513L222 508V95Q222 4 206 -56T155 -157T62 -229ZM153 618Q121 618 100 638T79 689Q79 722 100 742T153 762Q187 762 208 743T229
691Q229 659 208 639T153 618Z" />
<glyph unicode="k" horiz-adv-x="620" d="M533 -10Q506 -10 485 -4T444 19T399 66L236 267L234 279L387 415Q400 427 400 437T387 451L342 459L351 509H582V460L553 452Q535 447 520 439T488 417L342 295L503 108Q525 83 542 73T578 62Q585 62 594 64T618 70L629
30Q609 11 583 1T533 -10ZM41 0V51L94 60Q114 63 119 73T125 109V642Q125 675 118 685T83 700L39 707L45 761L220 766L231 755V106Q231 82 236 73T258 59L293 52V0H41Z" />
<glyph unicode="l" horiz-adv-x="337" d="M39 0V52L92 61Q112 64 117 73T123 110V641Q123 674 116 684T81 699L37 707L44 761L218 766L229 755V107Q229 82 235 73T260 61L313 51V0H39Z" />
<glyph unicode="m" horiz-adv-x="964" d="M49 0V50L97 59Q113 62 118 71T123 107V384Q123 420 118 431T89 446L40 453L47 505L200 516L212 509L219 420H222Q238 449 263 472T320 509T388 523Q448 523 484 496T535 419Q557 464 601 493T702 523Q743 523 773 511T822
475T850 421T859 352V99Q859 78 864 70T890 58L937 50V0H688V49L724 58Q742 62 747 70T753 100V318Q753 384 734 413T665 443Q632 443 604 427T561 382T545 311V103Q545 80 549 72T569 60L612 49V0H373V49L409 57Q427 62 432 69T438 99V318Q438 384 420 413T351
443Q297 443 264 407T230 306V103Q230 80 235 72T255 60L297 49V0H49Z" />
<glyph unicode="n" horiz-adv-x="664" d="M49 0V50L97 59Q113 62 118 71T123 107V384Q123 420 118 431T89 446L40 453L47 505L200 516L212 509L219 420H222Q239 449 264 472T322 509T394 523Q451 523 487 502T541 443T558 352V99Q558 78 564 70T589 58L636 50V0H380V49L422
57Q441 62 446 70T452 99V318Q452 362 444 389T415 430T358 443Q299 443 265 407T230 306V103Q230 81 234 73T255 60L305 49V0H49Z" />
<glyph unicode="o" horiz-adv-x="588" d="M290 -14Q212 -14 157 18T72 107T43 242Q43 332 75 394T167 490T304 523Q378 523 432 493T515 405T545 268Q545 182 514 118T425 20T290 -14ZM304 53Q366 53 398 102T430 244Q430 347 393 403T288 459Q226 459 192 413T157
273Q157 169 195 111T304 53Z" />
<glyph unicode="p" horiz-adv-x="622" d="M33 -219V-167L79 -159Q95 -156 101 -146T108 -114V384Q108 420 101 432T71 447L25 453L33 505L184 516L197 509L203 421H206Q240 472 283 497T384 523Q475 523 527 457T579 272Q579 183 551 119T471 20T345 -14Q309 -14
273 -6T214 18V-111Q214 -134 221 -145T247 -158L308 -168V-219H33ZM331 58Q395 58 430 110T465 258Q465 352 435 398T345 444Q284 444 249 407T214 303V96Q233 79 265 69T331 58Z" />
<glyph unicode="q" horiz-adv-x="604" d="M314 -219V-167L375 -158Q393 -155 400 -144T407 -110V63L406 65Q345 -14 248 -14Q185 -14 139 16T68 104T43 238Q43 324 73 388T158 488T287 523Q328 523 363 512T432 478L478 523L513 514V-113Q513 -136 519 -146T542
-159L589 -166V-219H314ZM284 64Q339 64 373 104T407 206V414Q384 432 354 442T292 452Q155 452 155 249Q155 159 188 112T284 64Z" />
<glyph unicode="r" horiz-adv-x="487" d="M49 0V51L97 60Q113 63 118 72T123 108V383Q123 419 117 430T89 445L40 452L47 505L197 516L209 509L218 420H221Q280 523 371 523Q421 523 450 496T479 423Q479 384 461 363T408 342Q379 342 363 354T346 388Q346 399
350 413T366 447Q343 456 319 448T275 419T242 367T230 303V106Q230 81 234 74T255 63L341 50V0H49Z" />
<glyph unicode="s" horiz-adv-x="459" d="M64 -14L48 160L109 164Q123 125 143 100T191 63T248 51Q290 51 313 72T337 129Q337 162 311 179T222 214Q182 225 151 238T100 268T69 310T58 368Q58 415 79 449T141 503T236 523Q267 523 298 514T347 489L355 523H402L415
357L353 362Q342 410 311 437T237 465Q196 465 174 447T152 397Q152 365 178 348T265 313Q306 302 336 289T388 257T419 214T430 154Q430 106 408 68T344 8T246 -14Q206 -14 174 -5T120 20L109 -14H64Z" />
<glyph unicode="t" horiz-adv-x="410" d="M250 -14Q180 -14 146 23T111 135V442H34V497Q71 501 94 519T130 575T147 676L204 683L218 677V509H371V442H218V147Q218 107 233 86T286 64Q312 64 334 72T379 96L405 56Q373 23 333 5T250 -14Z" />
<glyph unicode="u" horiz-adv-x="640" d="M262 -14Q207 -14 172 6T121 65T104 156V385Q104 419 98 430T69 446L24 453L32 505L198 516L210 509V190Q210 146 217 119T244 79T299 66Q357 66 391 102T425 203V385Q425 420 420 431T391 446L348 453L355 505L519 516L531
509V107Q531 83 537 74T563 60L613 51V0L448 -6L433 76H430Q407 47 382 27T328 -3T262 -14Z" />
<glyph unicode="v" horiz-adv-x="599" d="M244 0L90 397Q80 423 74 433T46 448L11 456L21 509H275V459L227 452Q207 449 203 439T208 402L317 94H322L431 395Q440 421 435 432T408 449L364 459L374 509H588V458L551 450Q532 446 524 437T505 396L352 0H244Z" />
<glyph unicode="w" horiz-adv-x="869" d="M210 0L86 397Q78 424 71 433T42 448L7 456L17 509H269V459L221 452Q202 449 198 440T200 402L280 99H285L398 509H517L622 101H627L711 398Q718 422 714 433T687 450L646 459L655 509H862V458L825 450Q805 446 797 436T779
396L659 0H545L441 409H436L325 0H210Z" />
<glyph unicode="x" horiz-adv-x="573" d="M8 0V50L45 58Q63 63 75 71T109 102L227 248L99 404Q80 428 70 436T40 448L5 456L15 509H269V459L231 452Q194 446 225 409L305 311L375 405Q392 426 391 435T368 450L334 459L344 509H551V458L514 450Q496 446 483 438T450
404L340 266L470 106Q490 83 504 73T537 58L573 52V0H298V50L341 56Q379 62 348 99L263 203L184 101Q171 83 171 74T191 59L230 49V0H8Z" />
<glyph unicode="y" horiz-adv-x="583" d="M112 -229Q65 -229 36 -207T7 -148Q7 -117 27 -97T77 -77Q127 -77 131 -117Q132 -123 131 -137T126 -173Q147 -173 163 -163T195 -126T233 -51L257 4L93 398Q80 427 73 435T48 448L13 456L23 509H275V459L227 452Q207
449 203 439T208 402L313 136H318L423 395Q433 420 428 432T400 449L356 459L366 509H580V458L543 450Q526 446 518 437T496 395L307 -45Q278 -114 250 -154T189 -212T112 -229Z" />
<glyph unicode="z" horiz-adv-x="495" d="M35 0V50L327 450H220Q182 450 161 442T127 411T100 340L38 335L50 509H455V460L163 61H273Q306 61 326 65T359 81T383 118T410 185H469L455 0H35Z" />
<glyph unicode="{" horiz-adv-x="368" d="M258 -227Q195 -227 160 -194T124 -105Q124 -82 127 -46T134 31T141 113T144 183Q144 225 132 244T99 269T52 276V337Q78 337 98 343T131 369T144 432Q144 460 141 496T134 570T127 642T124 701Q124 757 158 789T253 822Q271
822 292 820T328 812L317 761Q306 763 295 764T271 765Q251 765 239 753T227 703Q227 685 229 651T235 578T240 501T243 439Q243 394 228 368T188 329T138 308Q164 299 188 285T227 245T243 174Q243 147 241 107T235 26T230 -51T227 -104Q227 -145 241 -157T279
-170Q288 -170 300 -169T324 -166L334 -217Q317 -222 297 -224T258 -227Z" />
<glyph unicode="|" horiz-adv-x="428" d="M178 -110V802H250V-110H178Z" />
<glyph unicode="}" horiz-adv-x="368" d="M110 -227Q91 -227 72 -225T34 -217L44 -166Q56 -167 68 -168T89 -170Q112 -170 126 -158T141 -104Q141 -86 139 -51T133 25T128 107T125 175Q125 219 140 245T180 285T230 308Q205 316 181 329T141 368T125 440Q125 464
127 501T133 578T138 651T141 703Q141 740 129 752T97 765Q85 765 74 764T51 761L40 813Q54 817 75 819T115 822Q176 822 210 790T244 702Q244 677 241 643T234 571T227 497T224 432Q224 390 236 370T269 344T316 337V276Q291 276 270 270T237 245T224 183Q224
153 227 113T234 32T241 -46T244 -105Q244 -160 209 -193T110 -227Z" />
<glyph unicode="~" horiz-adv-x="582" d="M122 233L66 254Q88 314 109 336T167 358Q191 358 225 352T295 338T364 324T420 317Q435 317 445 327T468 363L524 342Q508 298 493 276T461 246T423 238Q398 238 365 244T296 259T228 273T172 279Q157 279 148 271T122 233Z" />
<glyph unicode="&#xa0;" horiz-adv-x="195" />
<glyph unicode="&#xa1;" horiz-adv-x="335" d="M198 315V252Q198 193 204 136T217 28T231 -66T237 -139Q237 -171 217 -189T163 -207Q131 -207 113 -190T94 -141Q94 -112 100 -71T116 22T131 132T137 253V315H198ZM167 521Q199 521 220 502T241 450Q241 416 220
397T167 377Q134 377 114 396T93 449Q93 482 113 501T167 521Z" />
<glyph unicode="&#xa2;" horiz-adv-x="506" d="M164 -32L307 642H369L226 -32H164ZM281 33Q208 33 155 65T72 156T43 292Q43 376 74 438T162 535T294 570Q351 570 392 552T455 503T477 437Q477 406 459 388T409 369Q392 369 378 374T355 391T346 419Q346 431 352
446T374 487Q357 499 338 504T291 509Q249 509 219 484T173 415T157 314Q157 221 198 170T309 118Q349 118 382 132T442 171L478 132Q445 89 394 61T281 33Z" />
<glyph unicode="&#xa3;" horiz-adv-x="560" d="M49 0L40 52Q85 70 112 91T151 142T164 213Q164 236 158 259T135 313H25L33 374H107Q90 408 82 441T73 510Q73 572 102 618T183 689T306 715Q389 715 439 679T490 583Q490 552 471 534T419 515Q388 515 372 528T355
565Q355 576 361 591T383 633Q367 643 345 649T301 655Q188 655 188 531Q188 493 198 457T231 374H434V313H258Q266 293 269 276T273 245Q273 200 252 160T191 88V83H321Q364 83 387 90T427 119T461 184H522L497 0H49Z" />
<glyph unicode="&#xa4;" horiz-adv-x="539" d="M452 191L365 259Q343 247 318 241T267 235Q209 235 169 257L85 192L50 227L114 309Q101 330 95 356T88 412Q88 474 114 516L49 599L84 634L167 568Q190 582 217 589T273 596Q299 596 324 591T371 573L453 637L488
602L425 522Q438 503 444 478T451 421Q451 387 444 359T421 310L487 226L452 191ZM267 292Q317 292 340 325T364 417Q364 481 340 509T271 537Q226 537 200 508T174 415Q174 357 198 325T267 292Z" />
<glyph unicode="&#xa5;" horiz-adv-x="710" d="M203 0V51L269 60Q291 64 295 76T300 111V285L114 589Q100 613 88 624T54 640L18 647V700H307V650L255 643Q235 640 228 628T236 593L375 359H380L513 588Q529 612 523 623T496 639L448 651V700H692V650L648 642Q630
639 619 626T591 587L412 287V107Q412 84 417 74T444 60L510 51V0H203ZM265 324L93 341L154 381L310 363L265 324ZM89 202L95 260H611V202H89ZM556 322L407 340L475 381L611 363L556 322Z" />
<glyph unicode="&#xa6;" horiz-adv-x="428" d="M178 -110V292H249V-110H178ZM178 429V803H249V429H178Z" />
<glyph unicode="&#xa7;" horiz-adv-x="636" d="M282 -158Q213 -158 171 -132T128 -60Q128 -29 148 -8T199 13Q225 13 240 2T256 -28Q256 -39 251 -51T230 -88Q240 -94 256 -96T291 -99Q334 -99 360 -77T386 -17Q386 6 373 27T328 74T240 134Q176 174 137 209T80
278T63 351Q63 398 89 435T162 497Q158 510 155 526T151 557Q151 603 174 639T238 695T331 715Q396 715 437 689T479 618Q479 588 459 568T410 547Q383 547 368 558T352 587Q352 598 357 610T377 646Q367 651 353 654T327 658Q286 658 265 638T243 580Q243 541
278 503T398 417Q458 382 494 350T547 283T564 208Q564 164 538 124T464 60Q476 30 476 1Q476 -46 452 -82T384 -138T282 -158ZM435 109Q472 138 472 186Q472 221 442 254T341 328Q290 358 255 386T190 448Q154 418 154 376Q154 340 187 304T292 223Q340 195 375
167T435 109Z" />
<glyph unicode="&#xa8;" horiz-adv-x="500" d="M351 618Q321 618 302 636T283 684Q283 712 302 731T351 750Q383 750 402 732T421 685Q421 656 402 637T351 618ZM146 618Q116 618 97 636T78 684Q78 712 97 731T146 750Q178 750 197 732T216 685Q216 656 197 637T146 618Z" />
<glyph unicode="&#xa9;" horiz-adv-x="804" d="M402 -12Q287 -12 211 31T98 147T60 313Q60 393 87 455T162 561T271 628T404 651Q507 651 583 612T702 499T744 328Q744 226 702 150T582 31T402 -12ZM413 108Q348 108 304 136T238 211T215 313Q215 379 240 425T307
495T402 520Q436 520 460 509T495 488L500 522H535L558 387L513 379Q498 428 473 449T408 471Q361 471 333 431T305 317Q305 273 319 238T360 183T421 163Q459 163 485 179T534 222L565 192Q549 171 528 152T479 120T413 108ZM403 44Q488 44 549 79T644 176T678
322Q678 408 643 469T547 563T403 596Q325 596 263 562T164 465T127 314Q127 234 159 173T253 78T403 44Z" />
<glyph unicode="&#xaa;" horiz-adv-x="426" d="M151 362Q122 362 96 372T54 404T38 461Q38 509 71 534T164 569Q188 573 209 574T254 577V619Q254 661 237 678T182 696Q162 696 146 693T120 681Q139 652 139 642Q139 630 128 618T90 605Q64 605 53 618T42 648Q42
674 62 695T118 730T196 743Q240 743 273 731T325 690T344 608V452Q344 437 351 429T374 420Q382 420 391 422T412 428L422 393Q405 379 386 371T339 362Q307 362 289 377T267 418Q247 389 219 376T151 362ZM183 420Q199 420 215 426T242 448T254 488V532Q219 532
191 527T147 508T130 468Q130 444 146 432T183 420Z" />
<glyph unicode="&#xab;" horiz-adv-x="497" d="M422 53L255 219Q232 242 232 265Q232 278 239 289T261 315L421 476L457 448L338 267L457 80L422 53ZM236 53L70 219Q46 242 46 265Q46 278 53 289T75 315L235 476L271 448L152 267L271 80L236 53Z" />
<glyph unicode="&#xac;" horiz-adv-x="582" d="M427 151V299H71V371H505V151H427Z" />
<glyph unicode="&#xad;" horiz-adv-x="355" d="M41 243V329H316V243H41Z" />
<glyph unicode="&#xae;" horiz-adv-x="488" d="M243 401Q182 401 141 424T78 488T57 579Q57 637 82 678T150 742T244 765Q330 765 380 716T430 586Q430 531 406 490T340 425T243 401ZM327 465Q336 465 344 467T358 473L357 489Q354 489 351 489T346 488Q338 488
333 493T322 510L313 535Q306 552 297 564T267 581V582Q286 585 307 599T328 644Q328 677 302 690T238 703H149L146 686L163 683Q171 682 173 679T175 667V506Q175 499 173 495T163 488L146 486V469H246V486L229 488Q221 489 219 493T216 506V575H228Q241 575 249
567T265 538L278 504Q286 486 295 476T327 465ZM216 595V682H232Q255 682 270 674T285 641Q285 620 273 608T231 595H216Z" />
<glyph unicode="&#xaf;" horiz-adv-x="500" d="M106 633V711H394V633H106Z" />
<glyph unicode="&#xb0;" horiz-adv-x="338" d="M168 546Q104 546 74 580T43 664Q43 713 75 748T172 784Q232 784 263 752T295 668Q295 618 263 582T168 546ZM170 600Q197 600 214 618T231 666Q231 698 214 715T168 732Q141 732 125 714T108 666Q108 636 123 618T170 600Z" />
<glyph unicode="&#xb1;" horiz-adv-x="582" d="M249 141V305H74V376H249V530H327V376H508V305H327V141H249ZM74 1V72H508V1H74Z" />
<glyph unicode="&#xb2;" horiz-adv-x="399" d="M36 374L30 422Q100 487 144 531T213 605T247 658T256 707Q256 741 235 764T173 788Q149 788 132 782T106 765Q117 748 122 739T127 723Q127 710 115 697T77 683Q48 683 35 699T22 736Q22 766 43 789T103 825T188
838Q265 838 310 805T355 712Q355 687 345 662T311 608T243 539T133 446H229Q257 446 271 450T295 470T317 517H367L353 374H36Z" />
<glyph unicode="&#xb3;" horiz-adv-x="420" d="M195 362Q142 362 107 376T52 411T20 449L61 484Q80 463 110 445T182 427Q226 427 248 448T271 502Q271 546 241 565T147 581L151 627Q209 632 235 658T261 719Q261 748 241 768T185 789Q163 789 146 782T120 764Q131
749 135 741T139 727Q139 711 128 699T90 686Q61 686 48 701T34 739Q34 765 54 787T110 824T196 838Q267 838 310 807T354 723Q354 684 327 656T255 615V613Q307 605 339 578T372 499Q372 457 347 426T282 379T195 362Z" />
<glyph unicode="&#xb4;" horiz-adv-x="500" d="M197 580L170 608L278 750Q290 765 298 772T317 779Q343 779 357 761T371 724Q371 708 362 695T335 670L197 580Z" />
<glyph unicode="&#xb5;" horiz-adv-x="616" d="M101 -230L89 -225Q89 -225 87 -193T82 -106T79 14Q79 27 79 61T78 140T76 235T74 334T73 422T72 485T71 509L177 517L189 512Q186 449 183 377T179 232T177 95Q191 81 218 74T264 66Q323 66 358 103T393 204Q393
211 393 236T392 295T391 367T390 436T390 489T389 509L496 517L508 512Q503 453 500 408T494 325T491 255T490 188Q490 138 494 111T511 74T549 64Q565 64 590 72L602 26Q588 13 562 0T504 -14Q460 -14 438 10T405 87H403Q382 40 348 13T266 -14Q239 -14 216 -4T178
20H177Q178 -38 185 -90T199 -176T206 -210L101 -230Z" />
<glyph unicode="&#xb6;" horiz-adv-x="593" d="M254 -144V-93L336 -86Q353 -84 360 -74T367 -40V700H547V650L496 644Q478 642 472 631T465 596V-144H254ZM285 238Q183 238 124 299T64 467Q64 576 120 638T289 700H306V238H285Z" />
<glyph unicode="&#xb7;" horiz-adv-x="315" d="M158 232Q124 232 102 252T80 309Q80 345 102 366T158 387Q194 387 216 367T238 310Q238 274 216 253T158 232Z" />
<glyph unicode="&#xb8;" horiz-adv-x="500" d="M237 -231Q201 -231 173 -216T136 -192L159 -151Q174 -161 192 -166T226 -172Q245 -172 259 -162T274 -131Q274 -111 262 -102T225 -93Q215 -93 208 -93T193 -96L185 -74L219 13H272L246 -54Q296 -48 326 -69T356
-134Q356 -178 326 -204T237 -231Z" />
<glyph unicode="&#xb9;" horiz-adv-x="324" d="M33 374V419L98 429Q113 431 117 438T121 459V727Q121 747 117 754T93 764L30 769L35 812L205 836L216 827V458Q216 443 220 437T240 429L303 419V374H33Z" />
<glyph unicode="&#xba;" horiz-adv-x="432" d="M213 362Q124 362 80 413T35 544Q35 616 61 660T130 723T224 743Q300 743 348 698T397 562Q397 497 374 453T309 385T213 362ZM223 413Q263 413 284 447T306 545Q306 615 281 654T212 693Q172 693 149 663T126 566Q126
493 150 453T223 413Z" />
<glyph unicode="&#xbb;" horiz-adv-x="497" d="M262 53L226 82L345 264L227 449L263 476L428 311Q440 299 445 288T451 264Q451 252 444 241T422 214L262 53ZM76 53L40 82L159 264L41 449L77 476L242 311Q254 299 260 288T266 264Q266 252 259 241T236 214L76 53Z" />
<glyph unicode="&#xbc;" horiz-adv-x="963" d="M36 512V557L101 567Q116 569 120 576T124 597V865Q124 885 120 892T96 902L33 907L38 950L208 974L219 965V596Q219 581 223 575T243 567L306 557V512H36ZM218 -14L624 714H699L294 -14H218ZM748 0V86H532L523 138L737
454L829 465L840 456V145H914V86H840V0H748ZM592 145H748V368L747 377L592 145Z" />
<glyph unicode="&#xbd;" horiz-adv-x="964" d="M36 512V557L101 567Q116 569 120 576T124 597V865Q124 885 120 892T96 902L33 907L38 950L208 974L219 965V596Q219 581 223 575T243 567L306 557V512H36ZM214 -14L620 714H695L290 -14H214ZM597 10L591 58Q661
123 705 167T774 241T808 294T817 343Q817 377 796 400T734 424Q710 424 693 418T667 401Q678 384 683 375T688 359Q688 346 676 333T638 319Q609 319 596 335T583 372Q583 402 604 425T664 461T749 474Q826 474 871 441T916 348Q916 323 906 298T872 244T804 175T694
82H790Q818 82 832 86T856 106T878 153H928L914 10H597Z" />
<glyph unicode="&#xbe;" horiz-adv-x="972" d="M250 -14L656 714H731L326 -14H250ZM778 0V86H562L553 138L767 454L859 465L870 456V145H944V86H870V0H778ZM622 145H778V368L777 377L622 145ZM197 494Q144 494 109 508T54 543T22 581L63 616Q82 595 112 577T184
559Q228 559 250 580T273 634Q273 678 243 697T149 713L153 759Q211 764 237 790T263 851Q263 880 243 900T187 921Q165 921 148 914T122 896Q133 881 137 873T141 859Q141 843 130 831T92 818Q63 818 50 833T36 871Q36 897 56 919T112 956T198 970Q269 970 312
939T356 855Q356 816 329 788T257 747V745Q309 737 341 710T374 631Q374 589 349 558T284 511T197 494Z" />
<glyph unicode="&#xbf;" horiz-adv-x="535" d="M323 319V193Q323 170 317 152T295 115T255 71Q214 30 199 5T183 -50Q183 -94 211 -118T287 -143Q319 -143 342 -134T381 -108Q369 -92 360 -76T350 -48Q350 -31 367 -14T412 3Q445 3 459 -15T474 -59Q474 -98 447
-131T373 -183T272 -203Q182 -203 130 -159T77 -40Q77 -5 90 25T127 83T182 142Q217 176 234 196T258 230T264 257V319H323ZM292 525Q325 525 345 506T366 454Q366 420 346 401T292 381Q259 381 239 400T219 453Q219 486 239 505T292 525Z" />
<glyph unicode="&#xc0;" horiz-adv-x="736" d="M14 0V51L62 59Q80 63 88 73T107 113L318 700H429L638 112Q647 86 654 76T681 60L722 53V0H444V51L499 58Q519 61 523 72T518 108L478 227H222L183 112Q174 87 179 75T206 58L260 50V0H14ZM242 287H459L355 600H351L242
287ZM448 752L294 818Q273 827 261 840T249 876Q249 894 262 911T296 928Q305 928 314 922T336 905L470 784L448 752Z" />
<glyph unicode="&#xc1;" horiz-adv-x="736" d="M14 0V51L62 59Q80 63 88 73T107 113L318 700H429L638 112Q647 86 654 76T681 60L722 53V0H444V51L499 58Q519 61 523 72T518 108L478 227H222L183 112Q174 87 179 75T206 58L260 50V0H14ZM242 287H459L355 600H351L242
287ZM298 752L276 784L410 905Q423 916 432 922T450 928Q471 928 484 911T497 876Q497 853 486 840T452 818L298 752Z" />
<glyph unicode="&#xc2;" horiz-adv-x="736" d="M14 0V51L62 59Q80 63 88 73T107 113L318 700H429L638 112Q647 86 654 76T681 60L722 53V0H444V51L499 58Q519 61 523 72T518 108L478 227H222L183 112Q174 87 179 75T206 58L260 50V0H14ZM242 287H459L355 600H351L242
287ZM232 748L205 778L331 915Q341 927 351 933T374 940Q386 940 395 934T420 910L541 779L513 748L374 833L232 748Z" />
<glyph unicode="&#xc3;" horiz-adv-x="736" d="M14 0V51L62 59Q80 63 88 73T107 113L318 700H429L638 112Q647 86 654 76T681 60L722 53V0H444V51L499 58Q519 61 523 72T518 108L478 227H222L183 112Q174 87 179 75T206 58L260 50V0H14ZM242 287H459L355 600H351L242
287ZM451 775Q432 775 412 780T362 798Q327 812 309 818T280 825Q267 825 259 818T235 788L201 810Q228 867 248 887T298 908Q314 908 334 903T388 882Q413 872 428 866T453 858T468 856Q480 856 488 863T512 893L545 872Q519 816 499 796T451 775Z" />
<glyph unicode="&#xc4;" horiz-adv-x="736" d="M14 0V51L62 59Q80 63 88 73T107 113L318 700H429L638 112Q647 86 654 76T681 60L722 53V0H444V51L499 58Q519 61 523 72T518 108L478 227H222L183 112Q174 87 179 75T206 58L260 50V0H14ZM242 287H459L355 600H351L242
287ZM476 771Q446 771 426 789T406 837Q406 867 426 885T476 904Q508 904 527 886T546 838Q546 809 527 790T476 771ZM268 771Q237 771 218 789T199 837Q199 867 218 885T268 904Q300 904 319 886T338 838Q338 809 319 790T268 771Z" />
<glyph unicode="&#xc5;" horiz-adv-x="736" d="M14 0V51L62 59Q80 63 88 73T107 113L318 700H429L638 112Q647 86 654 76T681 60L722 53V0H444V51L499 58Q519 61 523 72T518 108L478 227H222L183 112Q174 87 179 75T206 58L260 50V0H14ZM242 287H459L355 600H351L242
287ZM371 742Q313 742 285 771T256 848Q256 893 286 924T375 955Q431 955 460 927T489 851Q489 803 458 773T371 742ZM373 791Q400 791 410 808T421 849Q421 875 409 891T372 907Q345 907 334 890T323 849Q323 825 334 808T373 791Z" />
<glyph unicode="&#xc6;" horiz-adv-x="1003" d="M14 0V51L62 59Q78 62 87 71T112 110L374 640L309 649V700H895L933 536L877 519Q858 571 839 597T793 633T718 642H622V377H700Q731 377 747 379T771 390T783 414T793 459L842 466V241L793 232Q787 270 782 288T760
311T704 317H622V58H748Q797 58 824 67T867 104T897 185H956L932 0H424V51L479 60Q499 63 504 74T510 111V317H291L192 112Q180 88 183 75T209 58L262 50V0H14ZM320 377H510L511 642H447L320 377Z" />
<glyph unicode="&#xc7;" horiz-adv-x="704" d="M386 -14Q283 -14 207 30T90 156T48 348Q48 458 88 540T201 668T369 714Q426 714 467 697T537 652L547 716H598L637 482L578 469Q549 559 502 602T375 645Q307 645 261 611T192 511T168 351Q168 263 197 198T279
98T399 62Q444 62 479 74T544 112T599 172L649 134Q623 92 584 59T495 6T386 -14ZM357 -231Q321 -231 293 -216T256 -192L279 -151Q294 -161 312 -166T346 -172Q365 -172 379 -162T394 -131Q394 -111 382 -102T345 -93Q335 -93 328 -93T313 -96L305 -74L339 13H392L366
-54Q416 -48 446 -69T476 -134Q476 -178 446 -204T357 -231Z" />
<glyph unicode="&#xc8;" horiz-adv-x="638" d="M59 0V51L114 60Q133 63 139 73T145 111V593Q145 619 139 628T112 640L59 649V700H530L568 536L512 519Q493 570 475 596T429 632T353 642H257V388H335Q371 388 387 392T411 414T428 470L477 477V248L428 239Q422
278 415 296T390 319T339 324H257V58H383Q432 58 459 67T502 104T532 185H591L567 0H59ZM399 752L245 818Q224 827 212 840T200 876Q200 894 213 911T247 928Q256 928 265 922T287 905L421 784L399 752Z" />
<glyph unicode="&#xc9;" horiz-adv-x="638" d="M59 0V51L114 60Q133 63 139 73T145 111V593Q145 619 139 628T112 640L59 649V700H530L568 536L512 519Q493 570 475 596T429 632T353 642H257V388H335Q371 388 387 392T411 414T428 470L477 477V248L428 239Q422
278 415 296T390 319T339 324H257V58H383Q432 58 459 67T502 104T532 185H591L567 0H59ZM249 752L227 784L361 905Q374 916 383 922T401 928Q422 928 435 911T448 876Q448 853 437 840T403 818L249 752Z" />
<glyph unicode="&#xca;" horiz-adv-x="638" d="M59 0V51L114 60Q133 63 139 73T145 111V593Q145 619 139 628T112 640L59 649V700H530L568 536L512 519Q493 570 475 596T429 632T353 642H257V388H335Q371 388 387 392T411 414T428 470L477 477V248L428 239Q422
278 415 296T390 319T339 324H257V58H383Q432 58 459 67T502 104T532 185H591L567 0H59ZM183 748L156 778L282 915Q292 927 302 933T325 940Q337 940 346 934T371 910L492 779L464 748L325 833L183 748Z" />
<glyph unicode="&#xcb;" horiz-adv-x="638" d="M59 0V51L114 60Q133 63 139 73T145 111V593Q145 619 139 628T112 640L59 649V700H530L568 536L512 519Q493 570 475 596T429 632T353 642H257V388H335Q371 388 387 392T411 414T428 470L477 477V248L428 239Q422
278 415 296T390 319T339 324H257V58H383Q432 58 459 67T502 104T532 185H591L567 0H59ZM427 771Q397 771 377 789T357 837Q357 867 377 885T427 904Q459 904 478 886T497 838Q497 809 478 790T427 771ZM219 771Q188 771 169 789T150 837Q150 867 169 885T219 904Q251
904 270 886T289 838Q289 809 270 790T219 771Z" />
<glyph unicode="&#xcc;" horiz-adv-x="413" d="M59 0V51L118 60Q139 64 144 73T150 111V591Q150 619 144 627T116 640L59 649V700H354V649L293 640Q274 636 269 626T263 589V107Q263 82 269 73T295 60L354 51V0H59ZM537 752L383 818Q362 827 350 840T338 876Q338
894 351 911T385 928Q394 928 403 922T425 905L559 784L537 752Z" />
<glyph unicode="&#xcd;" horiz-adv-x="413" d="M59 0V51L118 60Q139 64 144 73T150 111V591Q150 619 144 627T116 640L59 649V700H354V649L293 640Q274 636 269 626T263 589V107Q263 82 269 73T295 60L354 51V0H59ZM387 752L365 784L499 905Q512 916 521 922T539
928Q560 928 573 911T586 876Q586 853 575 840T541 818L387 752Z" />
<glyph unicode="&#xce;" horiz-adv-x="413" d="M59 0V51L118 60Q139 64 144 73T150 111V591Q150 619 144 627T116 640L59 649V700H354V649L293 640Q274 636 269 626T263 589V107Q263 82 269 73T295 60L354 51V0H59ZM321 748L294 778L420 915Q430 927 440 933T463
940Q475 940 484 934T509 910L630 779L602 748L463 833L321 748Z" />
<glyph unicode="&#xcf;" horiz-adv-x="411" d="M59 0V51L118 60Q139 64 144 73T150 111V591Q150 619 144 627T116 640L59 649V700H354V649L293 640Q274 636 269 626T263 589V107Q263 82 269 73T295 60L354 51V0H59ZM565 771Q535 771 515 789T495 837Q495 867 515
885T565 904Q597 904 616 886T635 838Q635 809 616 790T565 771ZM357 771Q326 771 307 789T288 837Q288 867 307 885T357 904Q389 904 408 886T427 838Q427 809 408 790T357 771Z" />
<glyph unicode="&#xd0;" horiz-adv-x="766" d="M38 328L46 395H444V328H38ZM59 0V51L117 61Q135 64 140 74T146 112V592Q146 617 141 626T115 639L59 649V700H354Q470 700 551 664T675 555T718 374Q718 288 693 219T618 101T493 26T320 0H59ZM328 59Q401 59 452
79T536 139T583 235T598 367Q598 454 569 515T482 609T335 642H259V64Q269 63 289 61T328 59Z" />
<glyph unicode="&#xd1;" horiz-adv-x="834" d="M59 0V51L116 60Q135 64 140 74T146 111V593Q146 618 141 627T114 640L59 649V700H285L613 140L614 146V593Q614 618 608 627T581 640L527 649V700H775V649L719 640Q699 636 694 626T688 589V0H572L222 588L221 582V107Q221
83 227 74T253 60L308 51V0H59ZM491 775Q472 775 452 780T402 798Q367 812 349 818T320 825Q307 825 299 818T275 788L241 810Q268 867 288 887T338 908Q354 908 374 903T428 882Q453 872 468 866T493 858T508 856Q520 856 528 863T552 893L585 872Q559 816 539
796T491 775Z" />
<glyph unicode="&#xd2;" horiz-adv-x="762" d="M379 -14Q277 -14 203 30T88 154T48 336Q48 426 73 496T143 614T250 688T389 714Q485 714 558 672T672 553T713 368Q713 256 673 170T557 35T379 -14ZM391 58Q489 58 540 131T592 349Q592 441 567 507T493 609T375
645Q276 645 222 571T168 357Q168 266 194 199T270 95T391 58ZM458 752L304 818Q283 827 271 840T259 876Q259 894 272 911T306 928Q315 928 324 922T346 905L480 784L458 752Z" />
<glyph unicode="&#xd3;" horiz-adv-x="762" d="M379 -14Q277 -14 203 30T88 154T48 336Q48 426 73 496T143 614T250 688T389 714Q485 714 558 672T672 553T713 368Q713 256 673 170T557 35T379 -14ZM391 58Q489 58 540 131T592 349Q592 441 567 507T493 609T375
645Q276 645 222 571T168 357Q168 266 194 199T270 95T391 58ZM308 752L286 784L420 905Q433 916 442 922T460 928Q481 928 494 911T507 876Q507 853 496 840T462 818L308 752Z" />
<glyph unicode="&#xd4;" horiz-adv-x="762" d="M379 -14Q277 -14 203 30T88 154T48 336Q48 426 73 496T143 614T250 688T389 714Q485 714 558 672T672 553T713 368Q713 256 673 170T557 35T379 -14ZM391 58Q489 58 540 131T592 349Q592 441 567 507T493 609T375
645Q276 645 222 571T168 357Q168 266 194 199T270 95T391 58ZM242 748L215 778L341 915Q351 927 361 933T384 940Q396 940 405 934T430 910L551 779L523 748L384 833L242 748Z" />
<glyph unicode="&#xd5;" horiz-adv-x="763" d="M379 -14Q277 -14 203 30T88 154T48 336Q48 426 73 496T143 614T250 688T389 714Q485 714 558 672T672 553T713 368Q713 256 673 170T557 35T379 -14ZM391 58Q489 58 540 131T592 349Q592 441 567 507T493 609T375
645Q276 645 222 571T168 357Q168 266 194 199T270 95T391 58ZM462 775Q443 775 423 780T373 798Q338 812 320 818T291 825Q278 825 270 818T246 788L212 810Q239 867 259 887T309 908Q325 908 345 903T399 882Q424 872 439 866T464 858T479 856Q491 856 499 863T523
893L556 872Q530 816 510 796T462 775Z" />
<glyph unicode="&#xd6;" horiz-adv-x="762" d="M379 -14Q277 -14 203 30T88 154T48 336Q48 426 73 496T143 614T250 688T389 714Q485 714 558 672T672 553T713 368Q713 256 673 170T557 35T379 -14ZM391 58Q489 58 540 131T592 349Q592 441 567 507T493 609T375
645Q276 645 222 571T168 357Q168 266 194 199T270 95T391 58ZM486 771Q456 771 436 789T416 837Q416 867 436 885T486 904Q518 904 537 886T556 838Q556 809 537 790T486 771ZM278 771Q247 771 228 789T209 837Q209 867 228 885T278 904Q310 904 329 886T348 838Q348
809 329 790T278 771Z" />
<glyph unicode="&#xd7;" horiz-adv-x="582" d="M431 115L290 257L151 118L102 166L241 307L101 445L153 493L290 356L433 499L481 449L339 306L481 165L431 115Z" />
<glyph unicode="&#xd8;" horiz-adv-x="762" d="M33 -14L639 714H726L120 -14H33ZM379 -14Q277 -14 203 30T88 154T48 336Q48 426 73 496T143 614T250 688T389 714Q485 714 558 672T672 553T713 368Q713 256 673 170T557 35T379 -14ZM391 58Q489 58 540 131T592
349Q592 441 567 507T493 609T375 645Q276 645 222 571T168 357Q168 266 194 199T270 95T391 58Z" />
<glyph unicode="&#xd9;" horiz-adv-x="805" d="M403 -14Q310 -14 251 17T163 111T134 264V593Q134 618 128 627T101 640L46 649V700H334V649L276 640Q257 636 252 625T246 589V273Q246 201 262 154T317 85T419 62Q484 62 523 87T581 160T599 277V593Q599 618 593
627T566 640L512 649V700H763V649L707 640Q687 636 682 626T676 589V286Q676 135 607 61T403 -14ZM492 752L338 818Q317 827 305 840T293 876Q293 894 306 911T340 928Q349 928 358 922T380 905L514 784L492 752Z" />
<glyph unicode="&#xda;" horiz-adv-x="805" d="M403 -14Q310 -14 251 17T163 111T134 264V593Q134 618 128 627T101 640L46 649V700H334V649L276 640Q257 636 252 625T246 589V273Q246 201 262 154T317 85T419 62Q484 62 523 87T581 160T599 277V593Q599 618 593
627T566 640L512 649V700H763V649L707 640Q687 636 682 626T676 589V286Q676 135 607 61T403 -14ZM342 752L320 784L454 905Q467 916 476 922T494 928Q515 928 528 911T541 876Q541 853 530 840T496 818L342 752Z" />
<glyph unicode="&#xdb;" horiz-adv-x="805" d="M403 -14Q310 -14 251 17T163 111T134 264V593Q134 618 128 627T101 640L46 649V700H334V649L276 640Q257 636 252 625T246 589V273Q246 201 262 154T317 85T419 62Q484 62 523 87T581 160T599 277V593Q599 618 593
627T566 640L512 649V700H763V649L707 640Q687 636 682 626T676 589V286Q676 135 607 61T403 -14ZM276 748L249 778L375 915Q385 927 395 933T418 940Q430 940 439 934T464 910L585 779L557 748L418 833L276 748Z" />
<glyph unicode="&#xdc;" horiz-adv-x="805" d="M403 -14Q310 -14 251 17T163 111T134 264V593Q134 618 128 627T101 640L46 649V700H334V649L276 640Q257 636 252 625T246 589V273Q246 201 262 154T317 85T419 62Q484 62 523 87T581 160T599 277V593Q599 618 593
627T566 640L512 649V700H763V649L707 640Q687 636 682 626T676 589V286Q676 135 607 61T403 -14ZM520 771Q490 771 470 789T450 837Q450 867 470 885T520 904Q552 904 571 886T590 838Q590 809 571 790T520 771ZM312 771Q281 771 262 789T243 837Q243 867 262
885T312 904Q344 904 363 886T382 838Q382 809 363 790T312 771Z" />
<glyph unicode="&#xdd;" horiz-adv-x="710" d="M203 0V51L269 60Q289 64 294 74T300 111V285L114 589Q99 615 87 625T54 640L18 647V700H307V650L255 643Q233 640 228 628T236 593L375 359H380L513 588Q527 610 523 622T496 639L448 651V700H692V650L648 642Q632
639 621 628T591 587L412 287V107Q412 83 418 74T444 60L510 51V0H203ZM301 752L279 784L413 905Q426 916 435 922T453 928Q474 928 487 911T500 876Q500 853 489 840T455 818L301 752Z" />
<glyph unicode="&#xde;" horiz-adv-x="614" d="M59 0V51L115 60Q136 64 142 73T148 111V589Q148 617 142 627T115 640L59 649V700H362V649L296 640Q274 637 267 628T260 590V559H320Q407 559 467 540T558 478T589 368Q589 315 570 274T517 205T437 162T338 147Q320
147 299 147T260 148V109Q260 82 267 73T296 60L362 51V0H59ZM260 206Q272 206 285 206T313 206Q391 206 430 247T470 364Q470 434 432 467T310 501H260V206Z" />
<glyph unicode="&#xdf;" horiz-adv-x="690" d="M308 -14L292 160L352 164Q375 99 410 75T485 51Q522 51 546 70T571 131Q571 161 555 179T512 211T457 237T402 267T360 310T343 378Q343 410 355 435T384 483T418 528T446 577T458 638Q458 675 443 693T405 718T355
725Q302 725 266 695T229 594V0H36V51L93 60Q115 64 119 76T124 111V442H44V494L124 506V545Q124 618 153 671T236 753T365 782Q413 782 455 770T524 728T551 651Q551 614 535 585T497 529T459 475T442 414Q442 388 458 370T500 339T554 312T607 279T649 231T665
158Q665 112 645 73T584 10T485 -14Q442 -14 413 -2T366 23L355 -14H308Z" />
<glyph unicode="&#xe0;" horiz-adv-x="544" d="M191 -14Q126 -14 87 23T48 123Q48 181 78 214T171 264T333 285V355Q333 414 309 440T234 467Q208 467 183 459T145 438Q170 395 170 382Q170 362 154 349T110 335Q82 335 67 349T51 390Q51 426 78 456T151 504T249
523Q346 523 392 478T439 338V104Q439 59 483 59Q493 59 504 61T528 67L539 26Q520 9 493 -2T441 -14Q399 -14 375 8T345 72Q290 -14 191 -14ZM235 61Q278 61 305 89T333 160V230Q246 230 202 208T158 135Q158 100 178 81T235 61ZM307 580L168 670Q152 681 143
694T133 724Q133 743 147 761T186 779Q197 779 205 772T225 750L333 608L307 580Z" />
<glyph unicode="&#xe1;" horiz-adv-x="544" d="M191 -14Q126 -14 87 23T48 123Q48 181 78 214T171 264T333 285V355Q333 414 309 440T234 467Q208 467 183 459T145 438Q170 395 170 382Q170 362 154 349T110 335Q82 335 67 349T51 390Q51 426 78 456T151 504T249
523Q346 523 392 478T439 338V104Q439 59 483 59Q493 59 504 61T528 67L539 26Q520 9 493 -2T441 -14Q399 -14 375 8T345 72Q290 -14 191 -14ZM235 61Q278 61 305 89T333 160V230Q246 230 202 208T158 135Q158 100 178 81T235 61ZM197 580L170 608L278 750Q290
765 298 772T317 779Q343 779 357 761T371 724Q371 708 362 695T335 670L197 580Z" />
<glyph unicode="&#xe2;" horiz-adv-x="544" d="M191 -14Q126 -14 87 23T48 123Q48 181 78 214T171 264T333 285V355Q333 414 309 440T234 467Q208 467 183 459T145 438Q170 395 170 382Q170 362 154 349T110 335Q82 335 67 349T51 390Q51 426 78 456T151 504T249
523Q346 523 392 478T439 338V104Q439 59 483 59Q493 59 504 61T528 67L539 26Q520 9 493 -2T441 -14Q399 -14 375 8T345 72Q290 -14 191 -14ZM235 61Q278 61 305 89T333 160V230Q246 230 202 208T158 135Q158 100 178 81T235 61ZM119 580L91 608L207 760Q218 773
229 779T251 785Q265 785 274 779T299 753L409 609L381 580L251 679L119 580Z" />
<glyph unicode="&#xe3;" horiz-adv-x="544" d="M191 -14Q126 -14 87 23T48 123Q48 181 78 214T171 264T333 285V355Q333 414 309 440T234 467Q208 467 183 459T145 438Q170 395 170 382Q170 362 154 349T110 335Q82 335 67 349T51 390Q51 426 78 456T151 504T249
523Q346 523 392 478T439 338V104Q439 59 483 59Q493 59 504 61T528 67L539 26Q520 9 493 -2T441 -14Q399 -14 375 8T345 72Q290 -14 191 -14ZM235 61Q278 61 305 89T333 160V230Q246 230 202 208T158 135Q158 100 178 81T235 61ZM325 618Q313 618 300 620T269
628T223 647Q190 661 178 665T159 669Q146 669 138 662T113 632L80 654Q105 708 125 728T177 749Q194 749 212 744T264 725Q291 714 306 708T329 700T343 698Q355 698 363 705T386 735L420 714Q395 659 375 639T325 618Z" />
<glyph unicode="&#xe4;" horiz-adv-x="544" d="M191 -14Q126 -14 87 23T48 123Q48 181 78 214T171 264T333 285V355Q333 414 309 440T234 467Q208 467 183 459T145 438Q170 395 170 382Q170 362 154 349T110 335Q82 335 67 349T51 390Q51 426 78 456T151 504T249
523Q346 523 392 478T439 338V104Q439 59 483 59Q493 59 504 61T528 67L539 26Q520 9 493 -2T441 -14Q399 -14 375 8T345 72Q290 -14 191 -14ZM235 61Q278 61 305 89T333 160V230Q246 230 202 208T158 135Q158 100 178 81T235 61ZM351 618Q321 618 302 636T283
684Q283 712 302 731T351 750Q383 750 402 732T421 685Q421 656 402 637T351 618ZM146 618Q116 618 97 636T78 684Q78 712 97 731T146 750Q178 750 197 732T216 685Q216 656 197 637T146 618Z" />
<glyph unicode="&#xe5;" horiz-adv-x="544" d="M191 -14Q126 -14 87 23T48 123Q48 181 78 214T171 264T333 285V355Q333 414 309 440T234 467Q208 467 183 459T145 438Q170 395 170 382Q170 362 154 349T110 335Q82 335 67 349T51 390Q51 426 78 456T151 504T249
523Q346 523 392 478T439 338V104Q439 59 483 59Q493 59 504 61T528 67L539 26Q520 9 493 -2T441 -14Q399 -14 375 8T345 72Q290 -14 191 -14ZM235 61Q278 61 305 89T333 160V230Q246 230 202 208T158 135Q158 100 178 81T235 61ZM249 582Q192 582 164 611T136
686Q136 731 166 761T253 792Q309 792 337 764T365 689Q365 642 335 612T249 582ZM251 631Q277 631 287 647T297 688Q297 712 286 728T249 744Q224 744 213 728T202 688Q202 664 213 648T251 631Z" />
<glyph unicode="&#xe6;" horiz-adv-x="804" d="M191 -14Q157 -14 124 -1T69 43T48 123Q48 189 91 226T209 274Q239 279 271 281T333 285V355Q333 418 307 442T234 467Q203 467 180 458T145 438Q158 414 164 402T170 382Q170 365 156 350T110 335Q78 335 65 351T51
390Q51 426 78 456T151 505T247 523Q297 523 338 508T405 457Q473 523 575 523Q629 523 671 502T737 440T762 342Q762 318 759 293T748 243H439Q441 163 481 116T592 68Q641 68 675 87T731 127L769 89Q750 64 721 41T653 2T565 -14Q498 -14 450 12T373 82Q352 46
324 25T263 -5T191 -14ZM235 61Q255 61 277 70T316 102T333 162V230Q309 230 285 228T243 222Q195 213 177 189T158 135Q158 95 181 78T235 61ZM439 304H653Q655 314 655 326T656 352Q656 410 632 437T563 464Q519 464 493 441T455 381T439 304Z" />
<glyph unicode="&#xe7;" horiz-adv-x="506" d="M281 -14Q208 -14 155 18T72 109T43 245Q43 329 74 391T162 488T294 523Q351 523 392 505T455 456T477 390Q477 359 459 341T409 322Q392 322 378 327T355 343T346 372Q346 383 352 398T374 439Q357 452 338 457T291
462Q249 462 219 437T173 368T157 266Q157 173 198 122T309 70Q349 70 382 84T442 124L478 85Q445 42 394 14T281 -14ZM261 -231Q225 -231 197 -216T160 -192L183 -151Q198 -161 216 -166T250 -172Q269 -172 283 -162T298 -131Q298 -111 286 -102T249 -93Q239 -93
232 -93T217 -96L209 -74L243 13H296L270 -54Q320 -48 350 -69T380 -134Q380 -178 350 -204T261 -231Z" />
<glyph unicode="&#xe8;" horiz-adv-x="521" d="M283 -14Q207 -14 154 19T72 110T43 245Q43 330 74 392T161 489T291 523Q376 523 427 474T479 342Q479 321 476 295T466 243H157Q159 160 199 114T309 68Q350 68 385 84T449 127L486 89Q465 60 434 37T365 0T283
-14ZM157 304H371Q373 314 373 326T374 352Q374 409 350 436T280 464Q224 464 194 422T157 304ZM334 580L195 670Q179 681 170 694T160 724Q160 743 174 761T213 779Q224 779 232 772T252 750L360 608L334 580Z" />
<glyph unicode="&#xe9;" horiz-adv-x="522" d="M283 -14Q207 -14 154 19T72 110T43 245Q43 330 74 392T161 489T291 523Q376 523 427 474T479 342Q479 321 476 295T466 243H157Q159 160 199 114T309 68Q350 68 385 84T449 127L486 89Q465 60 434 37T365 0T283
-14ZM157 304H371Q373 314 373 326T374 352Q374 409 350 436T280 464Q224 464 194 422T157 304ZM226 580L199 608L307 750Q319 765 327 772T346 779Q372 779 386 761T400 724Q400 708 391 695T364 670L226 580Z" />
<glyph unicode="&#xea;" horiz-adv-x="521" d="M283 -14Q207 -14 154 19T72 110T43 245Q43 330 74 392T161 489T291 523Q376 523 427 474T479 342Q479 321 476 295T466 243H157Q159 160 199 114T309 68Q350 68 385 84T449 127L486 89Q465 60 434 37T365 0T283
-14ZM157 304H371Q373 314 373 326T374 352Q374 409 350 436T280 464Q224 464 194 422T157 304ZM148 580L120 608L236 760Q247 773 258 779T280 785Q294 785 303 779T328 753L438 609L410 580L280 679L148 580Z" />
<glyph unicode="&#xeb;" horiz-adv-x="522" d="M283 -14Q207 -14 154 19T72 110T43 245Q43 330 74 392T161 489T291 523Q376 523 427 474T479 342Q479 321 476 295T466 243H157Q159 160 199 114T309 68Q350 68 385 84T449 127L486 89Q465 60 434 37T365 0T283
-14ZM157 304H371Q373 314 373 326T374 352Q374 409 350 436T280 464Q224 464 194 422T157 304ZM380 618Q350 618 331 636T312 684Q312 712 331 731T380 750Q412 750 431 732T450 685Q450 656 431 637T380 618ZM175 618Q145 618 126 636T107 684Q107 712 126 731T175
750Q207 750 226 732T245 685Q245 656 226 637T175 618Z" />
<glyph unicode="&#xec;" horiz-adv-x="338" d="M38 0V52L94 61Q114 64 119 74T124 110V382Q124 418 118 429T88 444L41 451L48 504L219 513L231 508V107Q231 83 237 74T262 61L315 51V0H38ZM466 580L327 670Q311 681 302 694T292 724Q292 743 306 761T345 779Q356
779 364 772T384 750L492 608L466 580Z" />
<glyph unicode="&#xed;" horiz-adv-x="338" d="M38 0V52L94 61Q114 64 119 74T124 110V382Q124 418 118 429T88 444L41 451L48 504L219 513L231 508V107Q231 83 237 74T262 61L315 51V0H38ZM355 580L328 608L436 750Q448 765 456 772T475 779Q501 779 515 761T529
724Q529 708 520 695T493 670L355 580Z" />
<glyph unicode="&#xee;" horiz-adv-x="338" d="M38 0V52L94 61Q114 64 119 74T124 110V382Q124 418 118 429T88 444L41 451L48 504L219 513L231 508V107Q231 83 237 74T262 61L315 51V0H38ZM278 580L250 608L366 760Q377 773 388 779T410 785Q424 785 433 779T458
753L568 609L540 580L410 679L278 580Z" />
<glyph unicode="&#xef;" horiz-adv-x="338" d="M38 0V52L94 61Q114 64 119 74T124 110V382Q124 418 118 429T88 444L41 451L48 504L219 513L231 508V107Q231 83 237 74T262 61L315 51V0H38ZM510 618Q480 618 461 636T442 684Q442 712 461 731T510 750Q542 750
561 732T580 685Q580 656 561 637T510 618ZM305 618Q275 618 256 636T237 684Q237 712 256 731T305 750Q337 750 356 732T375 685Q375 656 356 637T305 618Z" />
<glyph unicode="&#xf0;" horiz-adv-x="581" d="M278 -14Q171 -14 108 53T44 241Q44 309 63 357T116 436T189 481T269 496Q317 496 357 476T424 419V430Q416 488 394 542T338 633L243 561L216 611L293 667Q263 688 223 702T133 723L143 773Q201 770 256 758T360
719L462 796L488 746L409 687Q448 654 477 605T521 492T537 348Q537 178 472 82T278 -14ZM293 52Q355 52 387 104T420 250Q420 283 417 315T402 371Q388 398 357 414T288 431Q233 431 197 387T160 247Q160 151 193 102T293 52Z" />
<glyph unicode="&#xf1;" horiz-adv-x="664" d="M49 0V50L97 59Q113 62 118 71T123 107V384Q123 420 118 431T89 446L40 453L47 505L200 516L212 509L219 420H222Q239 449 264 472T322 509T394 523Q451 523 487 502T541 443T558 352V99Q558 78 564 70T589 58L636
50V0H380V49L422 57Q441 62 446 70T452 99V318Q452 362 444 389T415 430T358 443Q299 443 265 407T230 306V103Q230 81 234 73T255 60L305 49V0H49ZM415 618Q403 618 390 620T359 628T313 647Q280 661 268 665T249 669Q236 669 228 662T203 632L170 654Q195 708
215 728T267 749Q284 749 302 744T354 725Q381 714 396 708T419 700T433 698Q445 698 453 705T476 735L510 714Q485 659 465 639T415 618Z" />
<glyph unicode="&#xf2;" horiz-adv-x="588" d="M290 -14Q212 -14 157 18T72 107T43 242Q43 332 75 394T167 490T304 523Q378 523 432 493T515 405T545 268Q545 182 514 118T425 20T290 -14ZM304 53Q366 53 398 102T430 244Q430 347 393 403T288 459Q226 459 192
413T157 273Q157 169 195 111T304 53ZM350 580L211 670Q195 681 186 694T176 724Q176 743 190 761T229 779Q240 779 248 772T268 750L376 608L350 580Z" />
<glyph unicode="&#xf3;" horiz-adv-x="589" d="M290 -14Q212 -14 157 18T72 107T43 242Q43 332 75 394T167 490T304 523Q378 523 432 493T515 405T545 268Q545 182 514 118T425 20T290 -14ZM304 53Q366 53 398 102T430 244Q430 347 393 403T288 459Q226 459 192
413T157 273Q157 169 195 111T304 53ZM242 580L215 608L323 750Q335 765 343 772T362 779Q388 779 402 761T416 724Q416 708 407 695T380 670L242 580Z" />
<glyph unicode="&#xf4;" horiz-adv-x="588" d="M290 -14Q212 -14 157 18T72 107T43 242Q43 332 75 394T167 490T304 523Q378 523 432 493T515 405T545 268Q545 182 514 118T425 20T290 -14ZM304 53Q366 53 398 102T430 244Q430 347 393 403T288 459Q226 459 192
413T157 273Q157 169 195 111T304 53ZM163 580L135 608L251 760Q262 773 273 779T295 785Q309 785 318 779T343 753L453 609L425 580L295 679L163 580Z" />
<glyph unicode="&#xf5;" horiz-adv-x="588" d="M290 -14Q212 -14 157 18T72 107T43 242Q43 332 75 394T167 490T304 523Q378 523 432 493T515 405T545 268Q545 182 514 118T425 20T290 -14ZM304 53Q366 53 398 102T430 244Q430 347 393 403T288 459Q226 459 192
413T157 273Q157 169 195 111T304 53ZM370 618Q358 618 345 620T314 628T268 647Q235 661 223 665T204 669Q191 669 183 662T158 632L125 654Q150 708 170 728T222 749Q239 749 257 744T309 725Q336 714 351 708T374 700T388 698Q400 698 408 705T431 735L465 714Q440
659 420 639T370 618Z" />
<glyph unicode="&#xf6;" horiz-adv-x="589" d="M290 -14Q212 -14 157 18T72 107T43 242Q43 332 75 394T167 490T304 523Q378 523 432 493T515 405T545 268Q545 182 514 118T425 20T290 -14ZM304 53Q366 53 398 102T430 244Q430 347 393 403T288 459Q226 459 192
413T157 273Q157 169 195 111T304 53ZM395 618Q365 618 346 636T327 684Q327 712 346 731T395 750Q427 750 446 732T465 685Q465 656 446 637T395 618ZM190 618Q160 618 141 636T122 684Q122 712 141 731T190 750Q222 750 241 732T260 685Q260 656 241 637T190
618Z" />
<glyph unicode="&#xf7;" horiz-adv-x="582" d="M75 272V343H507V272H75ZM288 82Q260 82 240 99T220 146Q220 175 240 193T288 211Q317 211 337 194T357 147Q357 118 337 100T288 82ZM288 401Q260 401 240 418T220 464Q220 494 240 511T288 529Q317 529 337 512T357
465Q357 436 337 419T288 401Z" />
<glyph unicode="&#xf8;" horiz-adv-x="589" d="M7 -14L492 523H575L89 -14H7ZM290 -14Q212 -14 157 18T72 107T43 242Q43 332 75 394T167 490T304 523Q378 523 432 493T515 405T545 268Q545 182 514 118T425 20T290 -14ZM304 53Q366 53 398 102T430 244Q430 347
393 403T288 459Q226 459 192 413T157 273Q157 169 195 111T304 53Z" />
<glyph unicode="&#xf9;" horiz-adv-x="640" d="M262 -14Q207 -14 172 6T121 65T104 156V385Q104 419 98 430T69 446L24 453L32 505L198 516L210 509V190Q210 146 217 119T244 79T299 66Q357 66 391 102T425 203V385Q425 420 420 431T391 446L348 453L355 505L519
516L531 509V107Q531 83 537 74T563 60L613 51V0L448 -6L433 76H430Q407 47 382 27T328 -3T262 -14ZM356 580L217 670Q201 681 192 694T182 724Q182 743 196 761T235 779Q246 779 254 772T274 750L382 608L356 580Z" />
<glyph unicode="&#xfa;" horiz-adv-x="640" d="M262 -14Q207 -14 172 6T121 65T104 156V385Q104 419 98 430T69 446L24 453L32 505L198 516L210 509V190Q210 146 217 119T244 79T299 66Q357 66 391 102T425 203V385Q425 420 420 431T391 446L348 453L355 505L519
516L531 509V107Q531 83 537 74T563 60L613 51V0L448 -6L433 76H430Q407 47 382 27T328 -3T262 -14ZM257 580L230 608L338 750Q350 765 358 772T377 779Q403 779 417 761T431 724Q431 708 422 695T395 670L257 580Z" />
<glyph unicode="&#xfb;" horiz-adv-x="640" d="M262 -14Q207 -14 172 6T121 65T104 156V385Q104 419 98 430T69 446L24 453L32 505L198 516L210 509V190Q210 146 217 119T244 79T299 66Q357 66 391 102T425 203V385Q425 420 420 431T391 446L348 453L355 505L519
516L531 509V107Q531 83 537 74T563 60L613 51V0L448 -6L433 76H430Q407 47 382 27T328 -3T262 -14ZM181 580L153 608L269 760Q280 773 291 779T313 785Q327 785 336 779T361 753L471 609L443 580L313 679L181 580Z" />
<glyph unicode="&#xfc;" horiz-adv-x="640" d="M262 -14Q207 -14 172 6T121 65T104 156V385Q104 419 98 430T69 446L24 453L32 505L198 516L210 509V190Q210 146 217 119T244 79T299 66Q357 66 391 102T425 203V385Q425 420 420 431T391 446L348 453L355 505L519
516L531 509V107Q531 83 537 74T563 60L613 51V0L448 -6L433 76H430Q407 47 382 27T328 -3T262 -14ZM412 618Q382 618 363 636T344 684Q344 712 363 731T412 750Q444 750 463 732T482 685Q482 656 463 637T412 618ZM207 618Q177 618 158 636T139 684Q139 712 158
731T207 750Q239 750 258 732T277 685Q277 656 258 637T207 618Z" />
<glyph unicode="&#xfd;" horiz-adv-x="583" d="M112 -229Q65 -229 36 -207T7 -148Q7 -117 27 -97T77 -77Q127 -77 131 -117Q132 -123 131 -137T126 -173Q147 -173 163 -163T195 -126T233 -51L257 4L93 398Q80 427 73 435T48 448L13 456L23 509H275V459L227 452Q207
449 203 439T208 402L313 136H318L423 395Q433 420 428 432T400 449L356 459L366 509H580V458L543 450Q526 446 518 437T496 395L307 -45Q278 -114 250 -154T189 -212T112 -229ZM260 580L233 608L341 750Q353 765 361 772T380 779Q406 779 420 761T434 724Q434
708 425 695T398 670L260 580Z" />
<glyph unicode="&#xfe;" horiz-adv-x="622" d="M33 -219V-167L79 -159Q96 -156 102 -146T108 -114V643Q108 673 102 684T66 700L22 707L29 761L203 766L214 755V439L215 431Q232 456 253 476T306 510T382 523Q471 523 524 459T577 274Q577 181 549 117T468 21T344
-12Q299 -12 266 -2T214 20V-111Q214 -135 221 -145T247 -158L308 -168V-219H33ZM331 60Q400 60 431 115T463 260Q463 347 436 395T345 444Q314 444 284 432T234 389T214 303V99Q235 80 268 70T331 60Z" />
<glyph unicode="&#xff;" horiz-adv-x="583" d="M112 -229Q65 -229 36 -207T7 -148Q7 -117 27 -97T77 -77Q127 -77 131 -117Q132 -123 131 -137T126 -173Q147 -173 163 -163T195 -126T233 -51L257 4L93 398Q80 427 73 435T48 448L13 456L23 509H275V459L227 452Q207
449 203 439T208 402L313 136H318L423 395Q433 420 428 432T400 449L356 459L366 509H580V458L543 450Q526 446 518 437T496 395L307 -45Q278 -114 250 -154T189 -212T112 -229ZM414 618Q384 618 365 636T346 684Q346 712 365 731T414 750Q446 750 465 732T484
685Q484 656 465 637T414 618ZM209 618Q179 618 160 636T141 684Q141 712 160 731T209 750Q241 750 260 732T279 685Q279 656 260 637T209 618Z" />
<glyph unicode="&#x2013;" horiz-adv-x="500" d="M15 245V312H485V245H15Z" />
<glyph unicode="&#x2014;" horiz-adv-x="1000" d="M15 245V312H985V245H15Z" />
<glyph unicode="&#x2018;" horiz-adv-x="316" d="M165 504Q124 504 105 529T85 592Q85 621 98 654T139 720T207 776L235 739Q197 713 177 685T153 629H175Q206 629 221 615T236 575Q236 545 217 525T165 504Z" />
<glyph unicode="&#x2019;" horiz-adv-x="316" d="M111 494L82 530Q120 557 140 584T163 639H142Q113 639 97 654T81 695Q81 725 100 745T152 765Q194 765 213 740T233 678Q233 649 219 615T178 550T111 494Z" />
<glyph unicode="&#x201a;" horiz-adv-x="319" d="M112 -151L84 -114Q122 -88 142 -61T165 -6H144Q114 -6 99 9T83 50Q83 80 102 100T154 120Q196 120 215 95T235 33Q235 4 221 -30T180 -96T112 -151Z" />
<glyph unicode="&#x201c;" horiz-adv-x="520" d="M369 504Q328 504 309 529T289 592Q289 621 302 654T343 720T411 776L439 739Q401 713 381 685T357 629H379Q410 629 425 615T440 575Q440 545 421 525T369 504ZM165 504Q124 504 105 529T85 592Q85 621 98 654T139
720T207 776L235 739Q197 713 177 685T153 629H175Q206 629 221 615T236 575Q236 545 217 525T165 504Z" />
<glyph unicode="&#x201d;" horiz-adv-x="520" d="M315 494L287 530Q325 557 345 584T368 639H347Q317 639 302 654T286 695Q286 725 305 745T356 765Q398 765 418 740T438 678Q438 649 424 615T383 550T315 494ZM111 494L82 530Q120 557 140 584T163 639H142Q113
639 97 654T81 695Q81 725 100 745T152 765Q194 765 213 740T233 678Q233 649 219 615T178 550T111 494Z" />
<glyph unicode="&#x201e;" horiz-adv-x="523" d="M317 -151L288 -114Q326 -88 346 -61T369 -6H348Q319 -6 303 9T287 50Q287 80 306 100T358 120Q400 120 419 95T439 33Q439 4 425 -30T384 -96T317 -151ZM112 -151L84 -114Q122 -88 142 -61T165 -6H144Q114 -6
99 9T83 50Q83 80 102 100T154 120Q196 120 215 95T235 33Q235 4 221 -30T180 -96T112 -151Z" />
<glyph unicode="&#x2022;" horiz-adv-x="386" d="M191 196Q142 196 111 225T79 305Q79 358 110 388T191 418Q242 418 274 389T307 307Q307 255 275 226T191 196Z" />
<glyph unicode="&#x2039;" horiz-adv-x="311" d="M236 53L68 219Q46 240 46 263Q46 276 51 286T72 312L235 476L276 446L155 267L279 85L236 53Z" />
<glyph unicode="&#x203a;" horiz-adv-x="312" d="M76 53L35 86L158 265L35 445L77 477L244 311Q255 299 260 289T266 266Q266 254 261 243T240 217L76 53Z" />
</font>
</defs>
</svg>
